<?xml version="1.0" standalone="no"?><!DOCTYPE svg PUBLIC "-//W3C//DTD SVG 1.1//EN" "http://www.w3.org/Graphics/SVG/1.1/DTD/svg11.dtd"><svg t="1587434564319" class="icon" viewBox="0 0 1024 1024" version="1.1" xmlns="http://www.w3.org/2000/svg" p-id="1918" xmlns:xlink="http://www.w3.org/1999/xlink" width="200" height="200"><defs><style type="text/css"></style></defs><path d="M512 23.272727C276.945455 23.272727 86.109091 214.109091 86.109091 449.163636c0 235.054545 190.836364 425.890909 425.890909 425.890909 235.054545 0 425.890909-190.836364 425.890909-425.890909C937.890909 214.109091 747.054545 23.272727 512 23.272727z m0 781.963637c-197.818182 0-358.4-160.581818-358.4-358.4S314.181818 90.763636 512 90.763636s358.4 160.581818 358.4 358.4S709.818182 805.236364 512 805.236364zM926.254545 944.872727c11.636364 13.963636 11.636364 34.909091-2.327272 46.545455s-34.909091 11.636364-46.545455-2.327273l-107.054545-114.036364c-11.636364-13.963636-11.636364-34.909091 2.327272-46.545454s34.909091-11.636364 46.545455 2.327273l107.054545 114.036363z" p-id="1919"></path></svg>