<?xml version="1.0" encoding="UTF-8"?>
<svg width="48px" height="52px" viewBox="0 0 48 52" version="1.1" xmlns="http://www.w3.org/2000/svg" xmlns:xlink="http://www.w3.org/1999/xlink">
    <!-- Generator: Sketch 52.6 (67491) - http://www.bohemiancoding.com/sketch -->
    <title>再加粗</title>
    <desc>Created with Sketch.</desc>
    <g id="再加粗" stroke="none" stroke-width="1" fill="none" fill-rule="evenodd">
        <g id="面感度-高" transform="translate(16.000000, 23.000000)" fill="#C8000B" fill-rule="nonzero">
            <path d="M11.0220301,7.29552355 L11.0250636,7.29863475 C9.82545775,8.29670157 8.29661168,8.89473684 6.63157895,8.89473684 C4.97707317,8.89473684 3.45703746,8.30423967 2.26088684,7.31751718 L2.26403521,7.31428809 C2.03676006,7.08118543 2.03676006,6.70350808 2.26388076,6.47056376 C2.49100147,6.23761945 2.85923689,6.23761945 3.0863576,6.47056376 L3.08919953,6.46796571 C4.07010673,7.2417104 5.29846144,7.70175439 6.63157895,7.70175439 C7.97524479,7.70175439 9.2124834,7.23440137 10.1971962,6.44954002 L10.1997343,6.45214319 C10.2025715,6.44910972 10.205446,6.44609943 10.2083578,6.44311293 C10.4354785,6.21016862 10.8037139,6.21016862 11.0308346,6.44311293 C11.2579553,6.67605725 11.2579553,7.0537346 11.0308346,7.28667892 C11.0279228,7.28966542 11.0249878,7.29261363 11.0220301,7.29552355 Z M11.2842105,2.92982456 C10.6418162,2.92982456 10.1210526,2.39570812 10.1210526,1.73684211 C10.1210526,1.07797609 10.6418162,0.543859649 11.2842105,0.543859649 C11.9266049,0.543859649 12.4473684,1.07797609 12.4473684,1.73684211 C12.4473684,2.39570812 11.9266049,2.92982456 11.2842105,2.92982456 Z M1.97894737,2.92982456 C1.336553,2.92982456 0.815789474,2.39570812 0.815789474,1.73684211 C0.815789474,1.07797609 1.336553,0.543859649 1.97894737,0.543859649 C2.62134174,0.543859649 3.14210526,1.07797609 3.14210526,1.73684211 C3.14210526,2.39570812 2.62134174,2.92982456 1.97894737,2.92982456 Z M18.6854488,1.3684747 C18.890712,1.01294849 19.2706489,0.916281884 19.6352912,1.1268082 C19.9999335,1.33733452 20.1061862,1.71470287 19.9009231,2.07022909 L14.227059,11.8976499 L13.0115848,11.1958955 L18.6854488,1.3684747 Z M12.5516483,11.9925289 L13.7671225,12.6942833 L12.2969928,14.3826025 C12.2227136,14.4679058 12.1041433,14.4996767 11.9971639,14.4629414 C11.8520066,14.4130963 11.7747407,14.2550156 11.8245858,14.1098582 L12.5516483,11.9925289 Z" id="合并形状"></path>
        </g>
        <path d="M33.3200241,23.5042588 C32.2273139,18.5015828 27.8713321,14.7633301 22.6640625,14.7633301 C16.633113,14.7633301 11.7440625,19.7777409 11.7440625,25.9633301 C11.7440625,32.1489193 16.633113,37.1633301 22.6640625,37.1633301 C23.7974279,37.1633301 24.8904663,36.9862424 25.9183088,36.6575734" id="路径" stroke="#C7000B" stroke-width="1.5" stroke-linecap="round" stroke-linejoin="round" fill-rule="nonzero"></path>
    </g>
</svg>