<?xml version="1.0" encoding="UTF-8"?>
<svg width="252px" height="130px" viewBox="0 0 252 130" version="1.1" xmlns="http://www.w3.org/2000/svg" xmlns:xlink="http://www.w3.org/1999/xlink">
    <!-- Generator: Sketch 54 (76480) - https://sketchapp.com -->
    <title>行业</title>
    <desc>Created with Sketch.</desc>
    <defs>
        <rect id="path-1" x="0" y="0" width="252" height="130"></rect>
    </defs>
    <g id="页面-1" stroke="none" stroke-width="1" fill="none" fill-rule="evenodd">
        <g id="首页0111-2复制-5备份-3复制" transform="translate(-360.000000, -2370.000000)">
            <g id="行业云场景" transform="translate(360.000000, 2370.000000)">
                <mask id="mask-2" fill="white">
                    <use xlink:href="#path-1"></use>
                </mask>
                <g id="蒙版"></g>
                <path d="M155.276367,65.5643295 L155.276367,49.7353516 C155.276367,48.6307821 154.380937,47.7353516 153.276367,47.7353516 L151.396517,47.7353516 C150.291947,47.7353516 149.396517,46.8399211 149.396517,45.7353516 L149.396517,41.9146012 C149.396517,40.8100317 148.501086,39.9146012 147.396517,39.9146012 L142.005197,39.9146012 L142.005197,53.2684929 L139.221804,53.2684929 L139.221804,30.1794063 L122.938671,34.791443 C122.077876,35.0352548 121.48371,35.8210854 121.48371,36.7157435 L121.48371,63.690032 C121.48371,64.7312434 122.327779,65.575312 123.36899,65.575312 L123.36899,65.575312 C124.410202,65.575312 125.25427,64.7312434 125.25427,63.690032 L125.25427,25.2451906 C125.25427,24.1406211 124.35884,23.2451906 123.25427,23.2451906 L118.039801,23.2451906 C116.935231,23.2451906 116.039801,24.1406211 116.039801,25.2451906 L116.039801,30.2035608 C116.039801,31.3081303 115.14437,32.2035608 114.039801,32.2035608 L111.821219,32.2035608 L111.900841,42.7331766 L108.971554,42.7331766 L108.755792,36.6298875 L104.715821,36.6298875 C103.611251,36.6298875 102.715821,37.525318 102.715821,38.6298875 L102.715821,60.4974412 C102.715821,61.6020107 101.82039,62.4974412 100.715821,62.4974412 L99.2508561,62.4974412 C98.1462866,62.4974412 97.2508561,61.6020107 97.2508561,60.4974412 L97.2508561,43.041214 C97.2508561,41.9366445 96.3554256,41.041214 95.2508561,41.041214 L89.9494053,41.041214 C88.8448358,41.041214 87.9494053,41.9366445 87.9494053,43.041214 C87.9494053,48.6222489 87.9494053,54.2032838 87.9494053,59.7843188 C87.9494053,62.8265196 86.7155629,64.5865 83.1917297,64.5865 C80.846193,64.5865 78.3850531,62.7704885 80.7177643,60.5488237 C81.2911346,60.002748 83.1917297,59.7843188 85.3366454,61.7083317 C89.4067892,65.3592953 92.4591754,68.2333763 99.2174386,70.0712891 C113.787802,74.0337059 149.621016,74.0337059 162.602462,70.0712891 C175.583907,66.1088722 181.287109,59.8765173 178.643555,46.0400391 C176.881185,36.8157202 167.898112,31.5325035 151.694336,30.1903889 C144.851913,14.6942214 132.316757,7.83779111 114.088867,9.62109786 C98.7720503,11.1196028 89.1879763,20.1225327 85.3366454,36.6298875 C69.2105224,38.8196967 61.1474609,44.990919 61.1474609,55.1435547 C61.1474609,62.1655542 61.1474609,71.7871094 80.7177643,77.5166332 C95.4360102,81.8256385 118.049321,75.9342244 121.819881,93.9853516 C125.590441,112.036479 109.529204,110.411967 107.40332,102.806641 C105.261872,95.1456313 97.2508561,93.9853516 90.274619,98.5703125 C83.7213517,102.877287 94.4770843,79.5029297 71.4814453,79.5029297 C48.4858063,79.5029297 50.4992837,101.97998 55.7529297,100.217773 C63.5088658,97.6162344 48.8792317,88.0126953 39.9375,95.4912109 C30.9957683,102.969727 30.9957683,117.621098 43.6308594,118.310059 C51.3591847,118.731465 78.6228749,119.101074 91.5222889,119.101074 C104.421703,119.101074 106.779995,108.349454 99.2174386,105.868652 C91.6548823,103.387851 93.599343,117.992832 104.006013,118.310059 C129.955394,119.101074 160.336254,119.101074 178.643555,119.101074 C200.780882,119.101074 209.632812,119.101074 210.663574,108.680176 C211.074426,104.526502 208.189453,99.4003906 205.442871,97.9013672 C202.696289,96.4023437 198.482894,95.4912109 194.492188,95.4912109 C186.19873,95.4912109 193.999512,91.480957 191.553711,83.2143555 C188.415881,72.6087529 167.438381,69.4629222 160.336254,79.5029297 C153.234126,89.5429371 158.842113,104.671387 165.453047,97.9013672 C172.063982,91.1313477 145.97932,88.9072266 141.873363,98.0019531 C137.767406,107.09668 142.736602,116.228516 160.336254,113.693359" id="路径-7复制" stroke="#252B3A" stroke-width="1.2" stroke-linecap="round" mask="url(#mask-2)"></path>
                <path d="M155.276367,65.5643295 L155.276367,49.7353516 C155.276367,48.6307821 154.380937,47.7353516 153.276367,47.7353516 L151.396517,47.7353516 C150.291947,47.7353516 149.396517,46.8399211 149.396517,45.7353516 L149.396517,41.9146012 C149.396517,40.8100317 148.501086,39.9146012 147.396517,39.9146012 L142.005197,39.9146012 L142.005197,53.2684929 L139.221804,53.2684929 L139.221804,30.1794063 L122.938671,34.791443 C122.077876,35.0352548 121.48371,35.8210854 121.48371,36.7157435 L121.48371,63.690032 C121.48371,64.7312434 122.327779,65.575312 123.36899,65.575312 L123.36899,65.575312 C124.410202,65.575312 125.25427,64.7312434 125.25427,63.690032 L125.25427,25.2451906 C125.25427,24.1406211 124.35884,23.2451906 123.25427,23.2451906 L118.039801,23.2451906 C116.935231,23.2451906 116.039801,24.1406211 116.039801,25.2451906 L116.039801,30.2035608 C116.039801,31.3081303 115.14437,32.2035608 114.039801,32.2035608 L111.821219,32.2035608 L111.900841,42.7331766 L108.971554,42.7331766 L108.755792,36.6298875 L104.715821,36.6298875 C103.611251,36.6298875 102.715821,37.525318 102.715821,38.6298875 L102.715821,60.4974412 C102.715821,61.6020107 101.82039,62.4974412 100.715821,62.4974412 L99.2508561,62.4974412 C98.1462866,62.4974412 97.2508561,61.6020107 97.2508561,60.4974412 L97.2508561,43.041214 C97.2508561,41.9366445 96.3554256,41.041214 95.2508561,41.041214 L89.9494053,41.041214 C88.8448358,41.041214 87.9494053,41.9366445 87.9494053,43.041214 C87.9494053,48.6222489 87.9494053,54.2032838 87.9494053,59.7843188 C87.9494053,62.8265196 86.7155629,64.5865 83.1917297,64.5865 C80.846193,64.5865 78.3850531,62.7704885 80.7177643,60.5488237 C81.2911346,60.002748 83.1917297,59.7843188 85.3366454,61.7083317" id="路径-7复制" stroke="#C7000B" stroke-width="1.2" stroke-linecap="round" mask="url(#mask-2)"></path>
            </g>
        </g>
    </g>
</svg>