<?xml version="1.0" encoding="UTF-8"?>
<svg width="252px" height="130px" viewBox="0 0 252 130" version="1.1" xmlns="http://www.w3.org/2000/svg" xmlns:xlink="http://www.w3.org/1999/xlink">
    <!-- Generator: Sketch 54 (76480) - https://sketchapp.com -->
    <title>城市</title>
    <desc>Created with Sketch.</desc>
    <defs>
        <rect id="path-1" x="0" y="0" width="252" height="130"></rect>
    </defs>
    <g id="页面-1" stroke="none" stroke-width="1" fill="none" fill-rule="evenodd">
        <g id="首页0111-2复制-5备份-3复制" transform="translate(-676.000000, -2767.000000)">
            <g id="编组-35复制-4" transform="translate(360.000000, 2767.000000)">
                <g id="编组-38">
                    <g id="编组-35复制-2">
                        <g id="03-最佳上云方案复制-4备份">
                            <g id="编组-34复制-2">
                                <g id="编组-34">
                                    <g id="编组-43" transform="translate(316.000000, 0.000000)">
                                        <g id="城市云场景">
                                            <mask id="mask-2" fill="white">
                                                <use xlink:href="#path-1"></use>
                                            </mask>
                                            <g id="蒙版"></g>
                                            <path d="M139.052159,114.572858 C122.206527,114.572858 110.720185,114.572858 104.593133,114.572858 C89.0279931,114.572858 87.1661062,109.2409 87.1661062,104.882112 C87.1661062,95.9752468 95.4561324,93.4747388 100.960777,94.2544523 C104.796792,94.7978102 106.248999,97.9499117 104.593133,98.9998011 C102.937267,100.049691 100.721339,99.7814031 99.7045968,96.4731698 C98.9026815,93.86393 98.7073767,90.3250243 99.6179188,86.9892919 C101.131695,81.4436354 106.095881,76.8443581 114.454712,76.1621094 C125.788257,75.2370642 131.701929,79.7724716 132.195729,89.7683316 C141.723496,89.7683316 147.741139,92.8454881 150.248657,98.9998011 C155.272894,111.331008 144.062979,114.572858 147.244578,114.572858 C153.598752,114.572858 161.089382,114.572858 169.056077,114.572858 C171.569656,114.572858 167.389781,114.572858 174.395996,114.572858 C175.324873,114.572858 176.529697,105.861639 176.358354,97.2164684 C176.28921,93.7278015 170.818333,94.0906533 172.426121,85.6330164 C173.527644,79.8385446 174.395996,75.7889986 175.54131,71.6486692 C176.686623,67.5083398 178.387459,67.8873405 179.530137,71.6486692 C180.103735,73.536771 181.083343,77.2223438 182.853527,85.3295882 C184.623712,93.4368325 179.585167,94.0802322 179.530137,97.1682 C179.371652,106.061316 180.845252,114.572858 181.356773,114.572858 C197.24813,114.572858 213.139486,114.572858 229.030842,114.572858 L229.030842,114.572858 C230.135411,114.572858 231.030842,113.677427 231.030842,112.572858 C231.030842,112.320159 230.982953,112.069749 230.889711,111.834883 L227.367191,102.96209 C227.170453,102.46653 226.783982,102.070041 226.293618,101.860687 L209.084796,94.5136412 L209.084796,47.1226332 C209.084796,46.0180637 208.189365,45.1226332 207.084796,45.1226332 L198.799772,45.1226332 C197.695203,45.1226332 196.799772,44.2272027 196.799772,43.1226332 L196.799772,36.4549541 C196.799772,35.3503846 195.904342,34.4549541 194.799772,34.4549541 L181.356773,34.4549541 L181.356773,62.4767177 L175.54131,62.4767177 L175.54131,27.5392757 L151.480609,37.5464819 C150.734686,37.8567225 150.248657,38.5852602 150.248657,39.3931282 L150.248657,72.7745416 C150.248657,73.8791111 151.144088,74.7745416 152.248657,74.7745416 L156.126649,74.7745416 C157.231219,74.7745416 158.126649,73.8791111 158.126649,72.7745416 L158.126649,11.6210979 C158.126649,10.5165284 157.231219,9.62109786 156.126649,9.62109786 L140.874464,9.62109786 C139.769894,9.62109786 138.874464,10.5165284 138.874464,11.6210979 L138.874464,26.4193134 C138.874464,27.5238829 137.979033,28.4193134 136.874464,28.4193134 L130.060401,28.4193134 L130.226759,50.8659916 L124.106474,50.8659916 L123.655674,38.0588693 L113.036103,38.0588693 C111.931534,38.0588693 111.036103,38.9542998 111.036103,40.0588693 L111.036103,65.4258356 C111.036103,66.5304051 110.140673,67.4258356 109.036103,67.4258356 L101.617919,67.4258356 C100.513349,67.4258356 99.6179188,66.5304051 99.6179188,65.4258356 L99.6179188,38.7959891 C99.6179188,37.6914196 98.7224883,36.7959891 97.6179188,36.7959891 L82.184,36.7959891 C81.0794305,36.7959891 80.184,37.6914196 80.184,38.7959891 L80.184,48.8659916 C80.184,49.9705611 79.2885695,50.8659916 78.184,50.8659916 L74.4149037,50.8659916 C73.3103342,50.8659916 72.4149037,51.7614221 72.4149037,52.8659916 L72.4149037,93.9866115 C72.4149037,95.091181 71.5194732,95.9866115 70.4149037,95.9866115 L63.7416813,95.9866115 C62.6371118,95.9866115 61.7416813,95.091181 61.7416813,93.9866115 L61.7416813,70.2604513 C61.7416813,69.1558818 62.6371118,68.2604513 63.7416813,68.2604513 L76.7546536,68.2604513 C77.8592231,68.2604513 78.7546536,67.3650208 78.7546536,66.2604513 L78.7546536,61.6670431 C78.7546536,60.5624736 77.8592231,59.6670431 76.7546536,59.6670431 L69.5001733,59.6670431 C68.3956038,59.6670431 67.5001733,58.7716126 67.5001733,57.6670431 L67.5001733,44.4131753 C67.5001733,43.3086058 66.6047428,42.4131753 65.5001733,42.4131753 L48.6210425,42.4131753 C47.516473,42.4131753 46.6210425,43.3086058 46.6210425,44.4131753 L46.6210425,94.5136412 C38.2891666,101.064201 33.602234,105.424712 32.5602447,107.595175 C30.9972607,110.850869 32.0033645,114.572858 36.9910743,114.572858 C41.9787842,114.572858 43.6978965,110.863395 42.160015,108.100224 C40.6221334,105.337053 35.0150859,101.664 31.0710417,104.882112 C27.1269976,108.100224 23.7321196,116.320883 32.5602447,117.221032 C41.3883699,118.12118 78.8718427,117.221032 81.1207916,117.221032" id="路径-7" stroke="#252B3A" stroke-width="1.2" stroke-linecap="round" mask="url(#mask-2)"></path>
                                            <path d="M139.052159,114.572858 C122.206527,114.572858 110.720185,114.572858 104.593133,114.572858 C89.0279931,114.572858 87.1661062,109.2409 87.1661062,104.882112 C87.1661062,95.9752468 95.4561324,93.4747388 100.960777,94.2544523 C104.796792,94.7978102 106.248999,97.9499117 104.593133,98.9998011 C102.937267,100.049691 100.721339,99.7814031 99.7045968,96.4731698 C98.9026815,93.86393 98.7073767,90.3250243 99.6179188,86.9892919 C101.131695,81.4436354 106.095881,76.8443581 114.454712,76.1621094 C125.788257,75.2370642 131.701929,79.7724716 132.195729,89.7683316 C141.723496,89.7683316 147.741139,92.8454881 150.248657,98.9998011 C155.272894,111.331008 144.062979,114.572858 147.244578,114.572858" id="路径-7" stroke="#C7000B" stroke-width="1.5" stroke-linecap="round" mask="url(#mask-2)"></path>
                                        </g>
                                    </g>
                                </g>
                            </g>
                        </g>
                    </g>
                </g>
            </g>
        </g>
    </g>
</svg>