<?xml version="1.0" encoding="UTF-8"?>
<svg width="252px" height="130px" viewBox="0 0 252 130" version="1.1" xmlns="http://www.w3.org/2000/svg" xmlns:xlink="http://www.w3.org/1999/xlink">
    <!-- Generator: Sketch 54 (76480) - https://sketchapp.com -->
    <title>混合</title>
    <desc>Created with Sketch.</desc>
    <defs>
        <rect id="path-1" x="0" y="0" width="252" height="130"></rect>
    </defs>
    <g id="页面-1" stroke="none" stroke-width="1" fill="none" fill-rule="evenodd">
        <g id="首页0111-2复制-5备份-3复制" transform="translate(-993.000000, -2767.000000)">
            <g id="编组-35复制-4" transform="translate(360.000000, 2767.000000)">
                <g id="编组-38">
                    <g id="编组-35复制-2">
                        <g id="03-最佳上云方案复制-4备份">
                            <g id="编组-34复制-2">
                                <g id="编组-45" transform="translate(633.000000, 0.000000)">
                                    <g id="混合云场景">
                                        <mask id="mask-2" fill="white">
                                            <use xlink:href="#path-1"></use>
                                        </mask>
                                        <g id="蒙版"></g>
                                        <path d="M171.769748,104.198342 C162.730074,106.772986 154.74437,106.772986 147.812636,104.198342 C137.415035,100.336376 131.972968,84.0592352 143.580993,75.8988907 C149.385969,71.8180404 156.998627,71.7696316 160.482922,73.0947953 C163.967218,74.419959 166.004774,76.9853275 165.060931,79.0682536 C164.041725,81.3174918 159.870808,80.5072682 159.416519,75.8988907 C158.889901,70.5568004 160.96202,64.6692628 167.496015,60.5971003 C174.03001,56.5249378 183.631405,56.5249378 189.824699,60.5971003 C195.858239,64.5642226 198.319815,69.394951 198.319815,74.8162801 C206.188609,74.8162801 216.165097,79.6894619 216.165097,91.8249737 C216.165097,104.335725 202.655367,110.407617 189.824699,110.866579 C163.526876,111.807268 154.605399,111.807268 130.852782,110.866579 C101.894531,109.719727 107.099121,100.70459 98.4097066,98.0375027 C94.2097941,96.7484018 88.8259354,98.0375027 88.0150937,101.875094 C87.1592017,105.925901 90.2873903,110.197756 94.9257812,110.866579 C104.532758,112.251836 120.678933,104.52393 121.748654,91.8249737 C123.334852,72.994774 104.693456,70.4775616 101.098615,70.4775616 C101.098615,62.5 93.6660227,45.1635723 68.3696902,50.0367058 C56.6217773,52.299846 48.7099108,64 52.1244925,74.8162801 C41.9228516,73.0947953 26.8945312,79.0682536 26.8945312,91.8249737 C26.8945312,104.581694 35.3027344,110.866579 52.1244925,110.866579 C68.9462507,110.866579 70.6297963,110.978624 75,109.001953 C92.3688778,101.145901 86.549931,79.4157803 70.4638672,70.4775616 C65.7741056,67.8716963 61.5006062,60.7330537 60.5556004,55.3551122 C60.4382142,54.6870783 60.3289324,54.0181496 60.2277549,53.348326 L60.2277567,53.3483257 C58.2480591,40.242167 67.2678378,28.0126642 80.3739965,26.0329665 C81.5604403,25.853753 82.7586536,25.7637678 83.9585562,25.7637678 L163.526876,25.7637678 L163.526876,12.9229463 C163.526876,12.3706616 163.974592,11.9229463 164.526876,11.9229463 C164.811401,11.9229463 165.082455,12.0441478 165.272161,12.2561999 L185.54729,34.9196051 C185.893794,35.3069248 185.885866,35.8951047 185.529048,36.2729441 L165.253919,57.7425597 C164.874724,58.1440942 164.241818,58.1622042 163.840284,57.7830096 C163.640243,57.5940981 163.526876,57.3311106 163.526876,57.0559672 L163.526876,44.0637243 L120.828726,44.0637243 C119.724157,44.0637243 118.828726,43.1682938 118.828726,42.0637243 L118.828726,31.7153902 C118.828726,31.1631054 118.381011,30.7153902 117.828726,30.7153902 C117.575583,30.7153902 117.331859,30.8113962 117.146723,30.9840408 L98.9156867,47.984974 C98.5117736,48.3616338 98.4896804,48.9944133 98.8663403,49.3983264 C98.8680897,49.4002024 98.8698464,49.4020716 98.8716102,49.4039341 L117.102647,68.6549156 C117.482403,69.0559183 118.115334,69.0731413 118.516337,68.6933844 C118.715759,68.5045276 118.828726,68.2419614 118.828726,67.9673049 L118.828726,56.3551122 C118.828726,55.8028275 119.276441,55.3551122 119.828726,55.3551122 L155.244874,55.3551122" id="路径-12" stroke="#252B3A" stroke-width="1.2" stroke-linecap="round" mask="url(#mask-2)"></path>
                                        <path d="M163.526876,44.0637243 L120.828726,44.0637243 C119.724157,44.0637243 118.828726,43.1682938 118.828726,42.0637243 L118.828726,31.7153902 C118.828726,31.1631054 118.381011,30.7153902 117.828726,30.7153902 C117.575583,30.7153902 117.331859,30.8113962 117.146723,30.9840408 L98.9156867,47.984974 C98.5117736,48.3616338 98.4896804,48.9944133 98.8663403,49.3983264 C98.8680897,49.4002024 98.8698464,49.4020716 98.8716102,49.4039341 L117.102647,68.6549156 C117.482403,69.0559183 118.115334,69.0731413 118.516337,68.6933844 C118.715759,68.5045276 118.828726,68.2419614 118.828726,67.9673049 L118.828726,56.3551122 C118.828726,55.8028275 119.276441,55.3551122 119.828726,55.3551122 L155.244874,55.3551122" id="路径-12" stroke="#C7000B" stroke-width="1.5" stroke-linecap="round" mask="url(#mask-2)"></path>
                                    </g>
                                </g>
                            </g>
                        </g>
                    </g>
                </g>
            </g>
        </g>
    </g>
</svg>