<?xml version="1.0" encoding="UTF-8"?>
<svg width="252px" height="130px" viewBox="0 0 252 130" version="1.1" xmlns="http://www.w3.org/2000/svg" xmlns:xlink="http://www.w3.org/1999/xlink">
    <!-- Generator: Sketch 54 (76480) - https://sketchapp.com -->
    <title>桌面云场景</title>
    <desc>Created with Sketch.</desc>
    <defs>
        <rect id="path-1" x="0" y="0" width="252" height="130"></rect>
    </defs>
    <g id="页面-1" stroke="none" stroke-width="1" fill="none" fill-rule="evenodd">
        <g id="首页0111-2复制-5备份-3复制" transform="translate(-1308.000000, -2767.000000)">
            <g id="编组-35复制-4" transform="translate(360.000000, 2767.000000)">
                <g id="编组-38">
                    <g id="编组-35复制-2">
                        <g id="03-最佳上云方案复制-4备份">
                            <g id="编组-34复制-2">
                                <g id="编组-44" transform="translate(948.000000, 0.000000)">
                                    <g id="桌面云场景">
                                        <mask id="mask-2" fill="white">
                                            <use xlink:href="#path-1"></use>
                                        </mask>
                                        <g id="蒙版"></g>
                                        <g id="编组" mask="url(#mask-2)" stroke-linecap="round" stroke-width="1.2">
                                            <g transform="translate(33.000000, 13.000000)" id="路径-9复制">
                                                <path d="M64.1212791,65.3623497 C50.95828,69.4064882 32.2676718,66.193534 32.2676718,49.0186023 C32.2676718,28.8391227 73.6589194,35.0960009 57.0366254,43.9346936 C47.4756838,49.0186023 47.4756838,20.4616795 70.4041257,20.4616795 C93.8893781,20.4616795 94.3166036,57.1413061 82.3603647,43.9346936 C76.44794,37.4039525 87.7077698,32.9698745 100.037578,40.9942384 C112.367386,49.0186023 106.177804,65.3623497 93.0339148,65.3623497 C66.8591711,65.3623497 100.176877,105 85.5311471,105 C61.1430308,105 36.7549145,105 12.3667982,105 L12.3667982,105 C11.2622287,105 10.3667982,104.10457 10.3667982,103 L10.3667982,101.73638 C10.3667982,100.63181 11.2622287,99.7363797 12.3667982,99.7363797 L58.0628711,99.7363797 C59.7197254,99.7363797 61.0628711,98.3932339 61.0628711,96.7363797 L61.0628711,89.7629182 C61.0628711,88.6583487 60.1674406,87.7629182 59.0628711,87.7629182 L6,87.7629182 C2.6862915,87.7629182 1.33014853e-09,85.0766267 1.28175515e-09,81.7629182 L-6.9463546e-11,6 C-1.17856932e-10,2.6862915 2.6862915,-3.92462236e-11 6,-8.7638341e-11 L133.765337,1.61746172e-09 C137.079045,1.65582526e-09 139.765337,2.6862915 139.765337,6 L139.765337,63.7580843 L139.765337,75.3943073 C139.765337,78.7080158 137.079045,81.3943073 133.765337,81.3943073 L11.4511719,81.3943073 C9.24203288,81.3943073 7.45117188,79.6034463 7.45117188,77.3943073 L7.45117188,10.9870807 C7.45117188,8.77794174 9.24203288,6.98708074 11.4511719,6.98708074 L128.446289,6.98708074 C130.655428,6.98708074 132.446289,8.77794174 132.446289,10.9870807 L132.446289,81.7629182 C132.446289,85.0766267 129.759998,87.7629182 126.446289,87.7629182 L79.5302114,87.7629182 C78.4256419,87.7629182 77.5302114,88.6583487 77.5302114,89.7629182 L77.5302114,95.7363797 C77.5302114,97.9455187 79.3210724,99.7363797 81.5302114,99.7363797 L147.90194,99.7363797 C150.111079,99.7363797 151.90194,97.9455187 151.90194,95.7363797 L151.90194,62.2943458 C151.90194,60.0852068 153.692801,58.2943458 155.90194,58.2943458 L182,58.2943458 C184.209139,58.2943458 186,60.0852068 186,62.2943458 L186,100.43262 C186,101.53719 185.10457,102.43262 184,102.43262 L183.849231,102.43262 C182.744662,102.43262 181.849231,101.53719 181.849231,100.43262 L181.849231,66.7580843 C181.849231,65.10123 180.506085,63.7580843 178.849231,63.7580843 L159.119526,63.7580843 C157.462672,63.7580843 156.119526,65.10123 156.119526,66.7580843 L156.119526,99.8100891 C156.119526,100.914659 157.014957,101.810089 158.119526,101.810089 L172.109566,101.810089 C173.214135,101.810089 174.109566,100.914659 174.109566,99.8100891 L174.109566,99.6847569 C174.109566,98.5801874 173.214135,97.6847569 172.109566,97.6847569 L166.295529,97.6847569 C165.190959,97.6847569 164.295529,98.5801874 164.295529,99.6847569 L164.295529,103 C164.295529,104.10457 163.400098,105 162.295529,105 L102.330118,105" stroke="#252B3A" transform="translate(93.000000, 52.500000) scale(-1, 1) translate(-93.000000, -52.500000) "></path>
                                                <path d="M111.147751,65.3623497 C97.9847519,69.4064882 79.2941436,66.193534 79.2941436,49.0186023 C79.2941436,28.8391227 120.685391,35.0960009 104.063097,43.9346936 C94.5021556,49.0186023 94.5021556,20.4616795 117.430598,20.4616795 C140.91585,20.4616795 141.343075,57.1413061 129.386836,43.9346936 C123.474412,37.4039525 134.734242,32.9698745 147.06405,40.9942384 C159.393858,49.0186023 153.204275,65.3623497 140.060387,65.3623497 C130.24415,65.3623497 128.795246,70.9371986 130.045829,77.9054579" stroke="#C7000B" transform="translate(116.513236, 49.183569) scale(-1, 1) translate(-116.513236, -49.183569) "></path>
                                            </g>
                                        </g>
                                    </g>
                                </g>
                            </g>
                        </g>
                    </g>
                </g>
            </g>
        </g>
    </g>
</svg>