<?xml version="1.0" encoding="UTF-8"?>
<svg width="40px" height="40px" viewBox="0 0 40 40" version="1.1" xmlns="http://www.w3.org/2000/svg" xmlns:xlink="http://www.w3.org/1999/xlink">
    <!-- Generator: Sketch 61.2 (89653) - https://sketch.com -->
    <title>备</title>
    <desc>Created with Sketch.</desc>
    <g id="页面-1" stroke="none" stroke-width="1" fill="none" fill-rule="evenodd">
        <g id="画板" transform="translate(-257.000000, -40.000000)" fill-rule="nonzero">
            <g id="免费备案" transform="translate(260.000000, 42.000000)">
                <path d="M32.7786489,10.0588447 C32.7786489,9.85944233 32.7786489,9.66003991 32.7786489,9.46063749 C32.7786489,8.38259432 32.0288769,7.44962671 30.9760886,7.21764847 L30.9760886,7.21764847 L30.9760886,7.21764847 C24.3519568,5.33100604 21.8624867,3.13473256 20.344061,2.01143562 C20.2491594,1.92455078 18.6451487,0.941397075 17.1680167,0.941397075 C15.6908847,0.941397075 14.0644511,1.93696289 13.9948566,2.01143562 C12.8750177,2.84304773 9.80420638,5.05750305 2.99027137,7 C1.81740493,7.36521564 1.01492858,8.44644105 1.00506332,9.67481429 C1.00323587,9.901982 1.0015481,10.0299921 1,10.0588447 C0.848157437,18.6480326 3.69785466,25.1681456 6.00813793,28 C10.4108415,33.396661 14.8630662,35.2175602 15.4957435,35.4782148 C15.7488145,35.6333663 16.3139023,35.7889062 17.1680167,35.7889062 C18.0221311,35.7889062 18.2963757,35.6333663 18.5557734,35.4782148 C19.1631437,35.2299723 24.0161116,33.451232 28.4146627,27.6239646 C33,21.5492399 32.7849757,10.1209053 32.7786489,10.0588447 Z" id="Path" stroke="#252B3A"></path>
                <path d="M11.41,18.095 C13.885,17.69 16.045,17.03 17.875,16.115 C19.615,16.985 21.715,17.6 24.175,17.975 L24.64,17.015 C22.42,16.715 20.515,16.235 18.895,15.545 C20.215,14.735 21.34,13.775 22.27,12.635 L22.27,11.81 L16.165,11.81 C16.405,11.495 16.645,11.165 16.87,10.805 L15.805,10.565 C14.71,12.17 13.315,13.46 11.635,14.435 L12.325,15.275 C13.075,14.795 13.78,14.27 14.44,13.67 C15.13,14.375 15.925,15.005 16.825,15.545 C15.145,16.295 13.195,16.835 10.945,17.15 L11.41,18.095 Z M17.83,15.05 C16.75,14.48 15.835,13.82 15.085,13.055 L15.385,12.755 L20.935,12.755 C20.065,13.625 19.03,14.39 17.83,15.05 Z M14.125,24.5 L14.125,23.84 L21.505,23.84 L21.505,24.5 L22.54,24.5 L22.54,17.96 L13.09,17.96 L13.09,24.5 L14.125,24.5 Z M17.29,20.45 L14.125,20.45 L14.125,18.86 L17.29,18.86 L17.29,20.45 Z M21.505,20.45 L18.31,20.45 L18.31,18.86 L21.505,18.86 L21.505,20.45 Z M17.29,22.91 L14.125,22.91 L14.125,21.32 L17.29,21.32 L17.29,22.91 Z M21.505,22.91 L18.31,22.91 L18.31,21.32 L21.505,21.32 L21.505,22.91 Z" id="备" fill="#252B3A"></path>
            </g>
        </g>
    </g>
</svg>