<?xml version="1.0" encoding="UTF-8"?>
<svg width="192px" height="96px" viewBox="0 0 192 96" version="1.1" xmlns="http://www.w3.org/2000/svg" xmlns:xlink="http://www.w3.org/1999/xlink">
    <!-- Generator: Sketch 49.3 (51167) - http://www.bohemiancoding.com/sketch -->
    <title>Artboard 2</title>
    <desc>Created with Sketch.</desc>
    <defs></defs>
    <g id="Artboard-2" stroke="none" stroke-width="1" fill="none" fill-rule="evenodd">
        <g id="云·新手1" transform="translate(0.000000, 64.000000)" stroke="#E41F2B">
            <g id="云·新手">
                <g id="Icon/模板" opacity="0">
                    <g id="Group-2-Copy">
                        <g id="Group-100" opacity="0.15" stroke-linecap="square" stroke-width="0.5">
                            <path d="M0,0 L32,32 M32,0 L0,32" id="Diagonal"></path>
                            <path d="M1.6625,0 L1.6625,32 M9.9375,0 L9.9375,32 M16,0 L16,32 M22.0625,0 L22.0625,32 M30.3291667,0 L30.3291667,32" id="Vertical"></path>
                            <path d="M1.66666667,0 L1.66666667,32 M9.94166667,0 L9.94166667,32 M16.0041667,0 L16.0041667,32 M22.0666667,0 L22.0666667,32 M30.3333333,0 L30.3333333,32" id="Vertical" transform="translate(16.000000, 16.000000) rotate(-270.000000) translate(-16.000000, -16.000000) "></path>
                        </g>
                        <g id="Group" transform="translate(1.600000, 1.600000)" opacity="0.300000012" stroke-width="0.5">
                            <rect id="Rectangle-46-Copy-2" transform="translate(14.400000, 14.400000) rotate(-270.000000) translate(-14.400000, -14.400000) " x="3.98333333" y="0.25" width="20.8333333" height="28.3" rx="7.11111111"></rect>
                            <rect id="Rectangle-46-Copy-2" transform="translate(14.400000, 14.400000) rotate(-270.000000) translate(-14.400000, -14.400000) " x="2.11666667" y="2.11666667" width="24.5666667" height="24.5666667" rx="7.11111111"></rect>
                            <circle id="Oval-27" cx="14.4" cy="14.4" r="14.15"></circle>
                            <circle id="Oval-27" cx="14.4" cy="14.4" r="5.88333333"></circle>
                            <rect id="Rectangle-46-Copy" x="3.98333333" y="0.25" width="20.8333333" height="28.3" rx="7.11111111"></rect>
                        </g>
                    </g>
                </g>
                <g id="Group" transform="translate(9.000000, 15.000000)">
                    <g id="Group-2">
                        <g id="Group-4" transform="translate(0.333333, 0.000000)">
                            <path d="M3.66666667,1.66666667 L11.6666667,1.66666667" id="Line" stroke-linecap="square"></path>
                            <rect id="Rectangle-12" x="0.833333333" y="0.5" width="2.33333333" height="2.33333333"></rect>
                        </g>
                    </g>
                    <g id="Group-3" transform="translate(0.333333, 3.333333)">
                        <path d="M0.333333333,2 L8.33333333,2" id="Line" stroke-linecap="square"></path>
                        <rect id="Rectangle-12" x="10.1666667" y="0.833333333" width="2.33333333" height="2.33333333"></rect>
                    </g>
                </g>
                <path d="M10.1019819,25.4300961 L21.7142857,25.4300961 L21.8980181,25.4300961 C25.4521446,25.4300961 28.3333333,22.5489074 28.3333333,18.9947809 C28.3333333,15.8995346 26.1314384,13.2584883 23.1301313,12.6771014 L22.4559122,12.5464976 L22.3357371,11.8703418 C21.7941355,8.82306223 19.1316327,6.56990389 16,6.56990389 C12.8683673,6.56990389 10.2058645,8.82306223 9.66426287,11.8703418 L9.54408779,12.5464976 L8.86986874,12.6771014 C5.86856161,13.2584883 3.66666667,15.8995346 3.66666667,18.9947809 C3.66666667,22.5489074 6.54785542,25.4300961 10.1019819,25.4300961 Z" id="Combined-Shape" stroke-width="2"></path>
            </g>
        </g>
        <g id="云·特惠1" transform="translate(32.000000, 64.000000)" stroke="#E41F2B">
            <g id="云·特惠">
                <g id="Icon/模板" opacity="0">
                    <g id="Group-2-Copy">
                        <g id="Group-100" opacity="0.15" stroke-linecap="square" stroke-width="0.5">
                            <path d="M0,0 L32,32 M32,0 L0,32" id="Diagonal"></path>
                            <path d="M1.6625,0 L1.6625,32 M9.9375,0 L9.9375,32 M16,0 L16,32 M22.0625,0 L22.0625,32 M30.3291667,0 L30.3291667,32" id="Vertical"></path>
                            <path d="M1.66666667,0 L1.66666667,32 M9.94166667,0 L9.94166667,32 M16.0041667,0 L16.0041667,32 M22.0666667,0 L22.0666667,32 M30.3333333,0 L30.3333333,32" id="Vertical" transform="translate(16.000000, 16.000000) rotate(-270.000000) translate(-16.000000, -16.000000) "></path>
                        </g>
                        <g id="Group" transform="translate(1.600000, 1.600000)" opacity="0.300000012" stroke-width="0.5">
                            <rect id="Rectangle-46-Copy-2" transform="translate(14.400000, 14.400000) rotate(-270.000000) translate(-14.400000, -14.400000) " x="3.98333333" y="0.25" width="20.8333333" height="28.3" rx="7.11111111"></rect>
                            <rect id="Rectangle-46-Copy-2" transform="translate(14.400000, 14.400000) rotate(-270.000000) translate(-14.400000, -14.400000) " x="2.11666667" y="2.11666667" width="24.5666667" height="24.5666667" rx="7.11111111"></rect>
                            <circle id="Oval-27" cx="14.4" cy="14.4" r="14.15"></circle>
                            <circle id="Oval-27" cx="14.4" cy="14.4" r="5.88333333"></circle>
                            <rect id="Rectangle-46-Copy" x="3.98333333" y="0.25" width="20.8333333" height="28.3" rx="7.11111111"></rect>
                        </g>
                    </g>
                </g>
                <path d="M22.8585137,24.4280904 L24.4280904,22.8585137 L24.4280904,19.4910294 L27.9191198,16 L24.4280904,12.5089706 L24.4280904,7.57190958 L19.4910294,7.57190958 L16,4.08088023 L12.5089706,7.57190958 L7.57190958,7.57190958 L7.57190958,12.5089706 L4.08088023,16 L7.57190958,19.4910294 L7.57190958,24.4280904 L12.5089706,24.4280904 L16,27.9191198 L19.4910294,24.4280904 L22.8585137,24.4280904 Z" id="Combined-Shape" stroke-width="2"></path>
                <path d="M20.7140452,11.2859548 L11.2859548,20.7140452" id="Line" stroke-linecap="square"></path>
                <g id="Group" transform="translate(11.000000, 11.000000)">
                    <g id="Group-2" transform="translate(0.333333, 0.333333)">
                        <rect id="Rectangle-12" x="0.833333333" y="0.833333333" width="2.33333333" height="2.33333333"></rect>
                        <rect id="Rectangle-12-Copy" x="6.16666667" y="6.16666667" width="2.33333333" height="2.33333333"></rect>
                    </g>
                </g>
            </g>
        </g>
        <g id="云·社区1" transform="translate(64.000000, 64.000000)">
            <g id="云·社区">
                <g id="Icon/模板" opacity="0" stroke="#E41F2B">
                    <g id="Group-2-Copy">
                        <g id="Group-100" opacity="0.15" stroke-linecap="square" stroke-width="0.5">
                            <path d="M0,0 L32,32 M32,0 L0,32" id="Diagonal"></path>
                            <path d="M1.6625,0 L1.6625,32 M9.9375,0 L9.9375,32 M16,0 L16,32 M22.0625,0 L22.0625,32 M30.3291667,0 L30.3291667,32" id="Vertical"></path>
                            <path d="M1.66666667,0 L1.66666667,32 M9.94166667,0 L9.94166667,32 M16.0041667,0 L16.0041667,32 M22.0666667,0 L22.0666667,32 M30.3333333,0 L30.3333333,32" id="Vertical" transform="translate(16.000000, 16.000000) rotate(-270.000000) translate(-16.000000, -16.000000) "></path>
                        </g>
                        <g id="Group" transform="translate(1.600000, 1.600000)" opacity="0.300000012" stroke-width="0.5">
                            <rect id="Rectangle-46-Copy-2" transform="translate(14.400000, 14.400000) rotate(-270.000000) translate(-14.400000, -14.400000) " x="3.98333333" y="0.25" width="20.8333333" height="28.3" rx="7.11111111"></rect>
                            <rect id="Rectangle-46-Copy-2" transform="translate(14.400000, 14.400000) rotate(-270.000000) translate(-14.400000, -14.400000) " x="2.11666667" y="2.11666667" width="24.5666667" height="24.5666667" rx="7.11111111"></rect>
                            <circle id="Oval-27" cx="14.4" cy="14.4" r="14.15"></circle>
                            <circle id="Oval-27" cx="14.4" cy="14.4" r="5.88333333"></circle>
                            <rect id="Rectangle-46-Copy" x="3.98333333" y="0.25" width="20.8333333" height="28.3" rx="7.11111111"></rect>
                        </g>
                    </g>
                </g>
                <path d="M25.156158,22.0442827 L25.6576936,20.1167224 L25.6666666,10.385749 C25.6667515,10.2935973 25.6170945,10.2085742 25.53679,10.1633734 L16.130889,4.86909606 C16.0532582,4.8254002 15.9584484,4.8254002 15.8808176,4.86909606 L6.4735636,10.164135 C6.39340564,10.2092534 6.34377182,10.294057 6.343687,10.3860405 L6.33333344,21.614251 C6.33324847,21.7064027 6.3829055,21.7914258 6.46321005,21.8366266 L15.869111,27.1309039 C15.9467418,27.1745998 16.0415516,27.1745998 16.1191824,27.1309039 L25.156158,22.0442827 Z" id="Polygon-Copy" stroke="#E41F2B" stroke-width="2"></path>
                <g id="Group-3" transform="translate(9.333333, 8.666667)" stroke="#E41F2B">
                    <g id="Group-2">
                        <circle id="Oval-16" cx="6.66666667" cy="1.33333333" r="1.33333333"></circle>
                        <circle id="Oval-16" cx="1.33333333" cy="10.6666667" r="1.33333333"></circle>
                        <circle id="Oval-16" cx="12" cy="10.6666667" r="1.33333333"></circle>
                    </g>
                    <g id="Group" transform="translate(3.000000, 3.000000)" stroke-linecap="square">
                        <path d="M3.66666667,0.333333333 L3.66666667,4.33333333" id="Line"></path>
                        <path d="M3.41421356,4.2524531 L0,6.66666667" id="Line-Copy"></path>
                        <path d="M7.37377345,4.2524531 L3.95955989,6.66666667" id="Line-Copy-2" transform="translate(5.666667, 5.459560) scale(-1, 1) translate(-5.666667, -5.459560) "></path>
                    </g>
                </g>
                <circle id="Oval-19" fill="#E41F2B" cx="16" cy="16" r="1"></circle>
            </g>
        </g>
        <g id="云·活动1" transform="translate(96.000000, 64.000000)" stroke="#E41F2B">
            <g id="云·活动">
                <g id="Group" transform="translate(4.000000, 4.666667)">
                    <path d="M4.33333333,1.00000159 L4.33331172,10.61196 C4.33331172,14.846155 7.76580498,18.2786483 12,18.2786483 C16.2341947,18.2786483 19.666688,14.8461558 19.6666889,10.6119632 L19.6666701,0.999999127 L4.33333335,0.999999345 Z" id="Rectangle-3" stroke-width="2"></path>
                    <path d="M12.3333333,19 L12.3333333,23" id="Line-10" stroke-linecap="round"></path>
                    <path d="M7.33333333,23 L17.3333333,23" id="Line" stroke-width="2" stroke-linecap="round"></path>
                    <path d="M20.7179306,4.16748169 L22.6075149,4.16746715 C23.1598077,4.16746715 23.6075295,4.61518891 23.6075295,5.16748169 C23.6075295,5.20985252 23.6048366,5.25218052 23.5994671,5.29420975 C23.1978733,8.4376484 22.2373611,10.0093677 20.7179306,10.0093677" id="Path-3"></path>
                    <path d="M0.10552974,3.99996392 L2.36890926,3.99997419 C2.92119985,3.99997928 3.36891571,4.44770339 3.36891063,4.99999399 C3.36891007,5.05999635 3.36350918,5.1198769 3.35277329,5.17891099 C2.76826763,8.39297033 1.71800279,10 0.201978768,10" id="Path-3" transform="translate(1.768394, 6.999982) scale(-1, 1) translate(-1.768394, -6.999982) "></path>
                </g>
            </g>
        </g>
        <g id="云·活动-copy-5" transform="translate(128.000000, 64.000000)">
            <g>
                <circle id="Oval-15" stroke="#E41F2B" stroke-width="2" cx="16" cy="16" r="10.3333333"></circle>
                <path d="M20.6666667,18.3271823 L20.6666667,17.5346265 C20.8331463,17.4272653 20.9970768,17.3203397 21.1584567,17.2138686 C27.0669432,13.3157204 29.5563751,10.0269969 28.5514171,8.28635865 C27.9230349,7.19796869 25.9454342,6.96307878 22.7320195,7.91682665 L22.5423302,7.27771601 C26.1463021,6.20804998 28.3330346,6.57477567 29.1287674,7.95302532 C30.3022626,9.9855787 28.0579789,13.5380851 21.1737152,18.0020854 C21.0074125,18.109922 20.838402,18.2182905 20.6666667,18.3271823 Z" id="Combined-Shape" fill="#E41F2B" fill-rule="nonzero"></path>
                <path d="M17.3333333,20.3101639 C8.67128311,25.1592937 3.75266327,25.5736574 2.4667318,23.3463588 C1.63247821,21.9013892 2.52556324,19.6882384 5.58511659,16.9255223 L6.03190717,17.4203178 C3.29599245,19.8907946 2.379873,21.8625816 3.04408207,23.0130254 C4.19327541,25.0034867 9.38031943,24.0488822 17.3333333,19.544969 L17.3333333,20.3101639 Z" id="Combined-Shape" fill="#E41F2B" fill-rule="nonzero"></path>
                <rect id="Rectangle-12" stroke="#E41F2B" x="17.6460015" y="17.0139583" width="3" height="3"></rect>
                <g id="Icon/模板" opacity="0" stroke="#E41F2B">
                    <g id="Group-2-Copy">
                        <g id="Group-100" opacity="0.15" stroke-linecap="square" stroke-width="0.5">
                            <path d="M0,0 L32,32 M32,0 L0,32" id="Diagonal"></path>
                            <path d="M1.6625,0 L1.6625,32 M9.9375,0 L9.9375,32 M16,0 L16,32 M22.0625,0 L22.0625,32 M30.3291667,0 L30.3291667,32" id="Vertical"></path>
                            <path d="M1.66666667,0 L1.66666667,32 M9.94166667,0 L9.94166667,32 M16.0041667,0 L16.0041667,32 M22.0666667,0 L22.0666667,32 M30.3333333,0 L30.3333333,32" id="Vertical" transform="translate(16.000000, 16.000000) rotate(-270.000000) translate(-16.000000, -16.000000) "></path>
                        </g>
                        <g id="Group" transform="translate(1.600000, 1.600000)" opacity="0.300000012" stroke-width="0.5">
                            <rect id="Rectangle-46-Copy-2" transform="translate(14.400000, 14.400000) rotate(-270.000000) translate(-14.400000, -14.400000) " x="3.98333333" y="0.25" width="20.8333333" height="28.3" rx="7.11111111"></rect>
                            <rect id="Rectangle-46-Copy-2" transform="translate(14.400000, 14.400000) rotate(-270.000000) translate(-14.400000, -14.400000) " x="2.11666667" y="2.11666667" width="24.5666667" height="24.5666667" rx="7.11111111"></rect>
                            <circle id="Oval-27" cx="14.4" cy="14.4" r="14.15"></circle>
                            <circle id="Oval-27" cx="14.4" cy="14.4" r="5.88333333"></circle>
                            <rect id="Rectangle-46-Copy" x="3.98333333" y="0.25" width="20.8333333" height="28.3" rx="7.11111111"></rect>
                        </g>
                    </g>
                </g>
            </g>
        </g>
        <g id="云·新手" transform="translate(0.000000, 32.000000)">
            <g>
                <g id="Icon/模板" opacity="0" stroke="#E41F2B">
                    <g id="Group-2-Copy">
                        <g id="Group-100" opacity="0.15" stroke-linecap="square" stroke-width="0.5">
                            <path d="M0,0 L32,32 M32,0 L0,32" id="Diagonal"></path>
                            <path d="M1.6625,0 L1.6625,32 M9.9375,0 L9.9375,32 M16,0 L16,32 M22.0625,0 L22.0625,32 M30.3291667,0 L30.3291667,32" id="Vertical"></path>
                            <path d="M1.66666667,0 L1.66666667,32 M9.94166667,0 L9.94166667,32 M16.0041667,0 L16.0041667,32 M22.0666667,0 L22.0666667,32 M30.3333333,0 L30.3333333,32" id="Vertical" transform="translate(16.000000, 16.000000) rotate(-270.000000) translate(-16.000000, -16.000000) "></path>
                        </g>
                        <g id="Group" transform="translate(1.600000, 1.600000)" opacity="0.300000012" stroke-width="0.5">
                            <rect id="Rectangle-46-Copy-2" transform="translate(14.400000, 14.400000) rotate(-270.000000) translate(-14.400000, -14.400000) " x="3.98333333" y="0.25" width="20.8333333" height="28.3" rx="7.11111111"></rect>
                            <rect id="Rectangle-46-Copy-2" transform="translate(14.400000, 14.400000) rotate(-270.000000) translate(-14.400000, -14.400000) " x="2.11666667" y="2.11666667" width="24.5666667" height="24.5666667" rx="7.11111111"></rect>
                            <circle id="Oval-27" cx="14.4" cy="14.4" r="14.15"></circle>
                            <circle id="Oval-27" cx="14.4" cy="14.4" r="5.88333333"></circle>
                            <rect id="Rectangle-46-Copy" x="3.98333333" y="0.25" width="20.8333333" height="28.3" rx="7.11111111"></rect>
                        </g>
                    </g>
                </g>
                <g id="Group" transform="translate(9.000000, 15.000000)" stroke="#252B3A">
                    <g id="Group-2">
                        <g id="Group-4" transform="translate(0.333333, 0.000000)">
                            <path d="M3.66666667,1.66666667 L11.6666667,1.66666667" id="Line" stroke-linecap="square"></path>
                            <rect id="Rectangle-12" x="0.833333333" y="0.5" width="2.33333333" height="2.33333333"></rect>
                        </g>
                    </g>
                    <g id="Group-3" transform="translate(0.333333, 3.333333)">
                        <path d="M0.333333333,2 L8.33333333,2" id="Line" stroke-linecap="square"></path>
                        <rect id="Rectangle-12" x="10.1666667" y="0.833333333" width="2.33333333" height="2.33333333"></rect>
                    </g>
                </g>
                <path d="M10.1019819,25.4300961 L21.7142857,25.4300961 L21.8980181,25.4300961 C25.4521446,25.4300961 28.3333333,22.5489074 28.3333333,18.9947809 C28.3333333,15.8995346 26.1314384,13.2584883 23.1301313,12.6771014 L22.4559122,12.5464976 L22.3357371,11.8703418 C21.7941355,8.82306223 19.1316327,6.56990389 16,6.56990389 C12.8683673,6.56990389 10.2058645,8.82306223 9.66426287,11.8703418 L9.54408779,12.5464976 L8.86986874,12.6771014 C5.86856161,13.2584883 3.66666667,15.8995346 3.66666667,18.9947809 C3.66666667,22.5489074 6.54785542,25.4300961 10.1019819,25.4300961 Z" id="Combined-Shape" stroke="#252B3A" stroke-width="2"></path>
            </g>
        </g>
        <g id="云·特惠" transform="translate(32.000000, 32.000000)">
            <g id="Icon/模板" fill-rule="evenodd" opacity="0" stroke="#E41F2B" stroke-width="1">
                <g id="Group-2-Copy">
                    <g id="Group-100" opacity="0.15" stroke-linecap="square" stroke-width="0.5">
                        <path d="M0,0 L32,32 M32,0 L0,32" id="Diagonal"></path>
                        <path d="M1.6625,0 L1.6625,32 M9.9375,0 L9.9375,32 M16,0 L16,32 M22.0625,0 L22.0625,32 M30.3291667,0 L30.3291667,32" id="Vertical"></path>
                        <path d="M1.66666667,0 L1.66666667,32 M9.94166667,0 L9.94166667,32 M16.0041667,0 L16.0041667,32 M22.0666667,0 L22.0666667,32 M30.3333333,0 L30.3333333,32" id="Vertical" transform="translate(16.000000, 16.000000) rotate(-270.000000) translate(-16.000000, -16.000000) "></path>
                    </g>
                    <g id="Group" transform="translate(1.600000, 1.600000)" opacity="0.300000012" stroke-width="0.5">
                        <rect id="Rectangle-46-Copy-2" transform="translate(14.400000, 14.400000) rotate(-270.000000) translate(-14.400000, -14.400000) " x="3.98333333" y="0.25" width="20.8333333" height="28.3" rx="7.11111111"></rect>
                        <rect id="Rectangle-46-Copy-2" transform="translate(14.400000, 14.400000) rotate(-270.000000) translate(-14.400000, -14.400000) " x="2.11666667" y="2.11666667" width="24.5666667" height="24.5666667" rx="7.11111111"></rect>
                        <circle id="Oval-27" cx="14.4" cy="14.4" r="14.15"></circle>
                        <circle id="Oval-27" cx="14.4" cy="14.4" r="5.88333333"></circle>
                        <rect id="Rectangle-46-Copy" x="3.98333333" y="0.25" width="20.8333333" height="28.3" rx="7.11111111"></rect>
                    </g>
                </g>
            </g>
            <path d="M22.8585137,24.4280904 L24.4280904,22.8585137 L24.4280904,19.4910294 L27.9191198,16 L24.4280904,12.5089706 L24.4280904,7.57190958 L19.4910294,7.57190958 L16,4.08088023 L12.5089706,7.57190958 L7.57190958,7.57190958 L7.57190958,12.5089706 L4.08088023,16 L7.57190958,19.4910294 L7.57190958,24.4280904 L12.5089706,24.4280904 L16,27.9191198 L19.4910294,24.4280904 L22.8585137,24.4280904 Z" id="Combined-Shape" stroke="#252B3A" stroke-width="2"></path>
            <path d="M20.7140452,11.2859548 L11.2859548,20.7140452" id="Line" stroke="#252B3A" stroke-width="1" stroke-linecap="square"></path>
            <g id="Group" stroke-width="1" fill-rule="evenodd" transform="translate(11.000000, 11.000000)" stroke="#252B3A">
                <g id="Group-2" transform="translate(0.333333, 0.333333)">
                    <rect id="Rectangle-12" x="0.833333333" y="0.833333333" width="2.33333333" height="2.33333333"></rect>
                    <rect id="Rectangle-12-Copy" x="6.16666667" y="6.16666667" width="2.33333333" height="2.33333333"></rect>
                </g>
            </g>
        </g>
        <g id="云·社区" transform="translate(64.000000, 32.000000)">
            <g id="Icon/模板" fill-rule="evenodd" opacity="0" stroke="#E41F2B" stroke-width="1">
                <g id="Group-2-Copy">
                    <g id="Group-100" opacity="0.15" stroke-linecap="square" stroke-width="0.5">
                        <path d="M0,0 L32,32 M32,0 L0,32" id="Diagonal"></path>
                        <path d="M1.6625,0 L1.6625,32 M9.9375,0 L9.9375,32 M16,0 L16,32 M22.0625,0 L22.0625,32 M30.3291667,0 L30.3291667,32" id="Vertical"></path>
                        <path d="M1.66666667,0 L1.66666667,32 M9.94166667,0 L9.94166667,32 M16.0041667,0 L16.0041667,32 M22.0666667,0 L22.0666667,32 M30.3333333,0 L30.3333333,32" id="Vertical" transform="translate(16.000000, 16.000000) rotate(-270.000000) translate(-16.000000, -16.000000) "></path>
                    </g>
                    <g id="Group" transform="translate(1.600000, 1.600000)" opacity="0.300000012" stroke-width="0.5">
                        <rect id="Rectangle-46-Copy-2" transform="translate(14.400000, 14.400000) rotate(-270.000000) translate(-14.400000, -14.400000) " x="3.98333333" y="0.25" width="20.8333333" height="28.3" rx="7.11111111"></rect>
                        <rect id="Rectangle-46-Copy-2" transform="translate(14.400000, 14.400000) rotate(-270.000000) translate(-14.400000, -14.400000) " x="2.11666667" y="2.11666667" width="24.5666667" height="24.5666667" rx="7.11111111"></rect>
                        <circle id="Oval-27" cx="14.4" cy="14.4" r="14.15"></circle>
                        <circle id="Oval-27" cx="14.4" cy="14.4" r="5.88333333"></circle>
                        <rect id="Rectangle-46-Copy" x="3.98333333" y="0.25" width="20.8333333" height="28.3" rx="7.11111111"></rect>
                    </g>
                </g>
            </g>
            <path d="M25.156158,22.0442827 L25.6576936,20.1167224 L25.6666666,10.385749 C25.6667515,10.2935973 25.6170945,10.2085742 25.53679,10.1633734 L16.130889,4.86909606 C16.0532582,4.8254002 15.9584484,4.8254002 15.8808176,4.86909606 L6.4735636,10.164135 C6.39340564,10.2092534 6.34377182,10.294057 6.343687,10.3860405 L6.33333344,21.614251 C6.33324847,21.7064027 6.3829055,21.7914258 6.46321005,21.8366266 L15.869111,27.1309039 C15.9467418,27.1745998 16.0415516,27.1745998 16.1191824,27.1309039 L25.156158,22.0442827 Z" id="Polygon-Copy" stroke="#252B3A" stroke-width="2"></path>
            <g id="Group-3" stroke-width="1" fill-rule="evenodd" transform="translate(9.333333, 8.666667)" stroke="#252B3A">
                <g id="Group-2">
                    <circle id="Oval-16" cx="6.66666667" cy="1.33333333" r="1.33333333"></circle>
                    <circle id="Oval-16" cx="1.33333333" cy="10.6666667" r="1.33333333"></circle>
                    <circle id="Oval-16" cx="12" cy="10.6666667" r="1.33333333"></circle>
                </g>
                <g id="Group" transform="translate(3.000000, 3.000000)" stroke-linecap="square">
                    <path d="M3.66666667,0.333333333 L3.66666667,4.33333333" id="Line"></path>
                    <path d="M3.41421356,4.2524531 L0,6.66666667" id="Line-Copy"></path>
                    <path d="M7.37377345,4.2524531 L3.95955989,6.66666667" id="Line-Copy-2" transform="translate(5.666667, 5.459560) scale(-1, 1) translate(-5.666667, -5.459560) "></path>
                </g>
            </g>
            <circle id="Oval-19" fill="#252B3A" fill-rule="evenodd" cx="16" cy="16" r="1"></circle>
        </g>
        <g id="大赛" transform="translate(96.000000, 32.000000)" stroke="#252B3A">
            <g id="Group" transform="translate(4.000000, 4.666667)">
                <path d="M4.33333333,1.00000159 L4.33331172,10.61196 C4.33331172,14.846155 7.76580498,18.2786483 12,18.2786483 C16.2341947,18.2786483 19.666688,14.8461558 19.6666889,10.6119632 L19.6666701,0.999999127 L4.33333335,0.999999345 Z" id="Rectangle-3" stroke-width="2"></path>
                <path d="M12.3333333,19 L12.3333333,23" id="Line-10" stroke-linecap="round"></path>
                <path d="M7.33333333,23 L17.3333333,23" id="Line" stroke-width="2" stroke-linecap="round"></path>
                <path d="M20.7179306,4.16748169 L22.6075149,4.16746715 C23.1598077,4.16746715 23.6075295,4.61518891 23.6075295,5.16748169 C23.6075295,5.20985252 23.6048366,5.25218052 23.5994671,5.29420975 C23.1978733,8.4376484 22.2373611,10.0093677 20.7179306,10.0093677" id="Path-3"></path>
                <path d="M0.10552974,3.99996392 L2.36890926,3.99997419 C2.92119985,3.99997928 3.36891571,4.44770339 3.36891063,4.99999399 C3.36891007,5.05999635 3.36350918,5.1198769 3.35277329,5.17891099 C2.76826763,8.39297033 1.71800279,10 0.201978768,10" id="Path-3" transform="translate(1.768394, 6.999982) scale(-1, 1) translate(-1.768394, -6.999982) "></path>
            </g>
        </g>
        <g id="云·活动" transform="translate(128.000000, 32.000000)">
            <circle id="Oval-15" stroke="#252B3A" stroke-width="2" cx="16" cy="16" r="10.3333333"></circle>
            <path d="M20.6666667,18.3271823 L20.6666667,17.5346265 C20.8331463,17.4272653 20.9970768,17.3203397 21.1584567,17.2138686 C27.0669432,13.3157204 29.5563751,10.0269969 28.5514171,8.28635865 C27.9230349,7.19796869 25.9454342,6.96307878 22.7320195,7.91682665 L22.5423302,7.27771601 C26.1463021,6.20804998 28.3330346,6.57477567 29.1287674,7.95302532 C30.3022626,9.9855787 28.0579789,13.5380851 21.1737152,18.0020854 C21.0074125,18.109922 20.838402,18.2182905 20.6666667,18.3271823 Z" id="Combined-Shape" fill="#252B3A" fill-rule="nonzero"></path>
            <path d="M17.3333333,20.3101639 C8.67128311,25.1592937 3.75266327,25.5736574 2.4667318,23.3463588 C1.63247821,21.9013892 2.52556324,19.6882384 5.58511659,16.9255223 L6.03190717,17.4203178 C3.29599245,19.8907946 2.379873,21.8625816 3.04408207,23.0130254 C4.19327541,25.0034867 9.38031943,24.0488822 17.3333333,19.544969 L17.3333333,20.3101639 Z" id="Combined-Shape" fill="#252B3A" fill-rule="nonzero"></path>
            <rect id="Rectangle-12" stroke="#252B3A" stroke-width="1" x="17.6460015" y="17.0139583" width="3" height="3"></rect>
        </g>
        <g id="云·新手">
            <g>
                <g id="Icon/模板" opacity="0" stroke="#E41F2B">
                    <g id="Group-2-Copy">
                        <g id="Group-100" opacity="0.15" stroke-linecap="square" stroke-width="0.5">
                            <path d="M0,0 L32,32 M32,0 L0,32" id="Diagonal"></path>
                            <path d="M1.6625,0 L1.6625,32 M9.9375,0 L9.9375,32 M16,0 L16,32 M22.0625,0 L22.0625,32 M30.3291667,0 L30.3291667,32" id="Vertical"></path>
                            <path d="M1.66666667,0 L1.66666667,32 M9.94166667,0 L9.94166667,32 M16.0041667,0 L16.0041667,32 M22.0666667,0 L22.0666667,32 M30.3333333,0 L30.3333333,32" id="Vertical" transform="translate(16.000000, 16.000000) rotate(-270.000000) translate(-16.000000, -16.000000) "></path>
                        </g>
                        <g id="Group" transform="translate(1.600000, 1.600000)" opacity="0.300000012" stroke-width="0.5">
                            <rect id="Rectangle-46-Copy-2" transform="translate(14.400000, 14.400000) rotate(-270.000000) translate(-14.400000, -14.400000) " x="3.98333333" y="0.25" width="20.8333333" height="28.3" rx="7.11111111"></rect>
                            <rect id="Rectangle-46-Copy-2" transform="translate(14.400000, 14.400000) rotate(-270.000000) translate(-14.400000, -14.400000) " x="2.11666667" y="2.11666667" width="24.5666667" height="24.5666667" rx="7.11111111"></rect>
                            <circle id="Oval-27" cx="14.4" cy="14.4" r="14.15"></circle>
                            <circle id="Oval-27" cx="14.4" cy="14.4" r="5.88333333"></circle>
                            <rect id="Rectangle-46-Copy" x="3.98333333" y="0.25" width="20.8333333" height="28.3" rx="7.11111111"></rect>
                        </g>
                    </g>
                </g>
                <g id="Group" transform="translate(9.000000, 15.000000)" stroke="#FFFFFF">
                    <g id="Group-2">
                        <g id="Group-4" transform="translate(0.333333, 0.000000)">
                            <path d="M3.66666667,1.66666667 L11.6666667,1.66666667" id="Line" stroke-linecap="square"></path>
                            <rect id="Rectangle-12" x="0.833333333" y="0.5" width="2.33333333" height="2.33333333"></rect>
                        </g>
                    </g>
                    <g id="Group-3" transform="translate(0.333333, 3.333333)">
                        <path d="M0.333333333,2 L8.33333333,2" id="Line" stroke-linecap="square"></path>
                        <rect id="Rectangle-12" x="10.1666667" y="0.833333333" width="2.33333333" height="2.33333333"></rect>
                    </g>
                </g>
                <path d="M10.1019819,25.4300961 L21.7142857,25.4300961 L21.8980181,25.4300961 C25.4521446,25.4300961 28.3333333,22.5489074 28.3333333,18.9947809 C28.3333333,15.8995346 26.1314384,13.2584883 23.1301313,12.6771014 L22.4559122,12.5464976 L22.3357371,11.8703418 C21.7941355,8.82306223 19.1316327,6.56990389 16,6.56990389 C12.8683673,6.56990389 10.2058645,8.82306223 9.66426287,11.8703418 L9.54408779,12.5464976 L8.86986874,12.6771014 C5.86856161,13.2584883 3.66666667,15.8995346 3.66666667,18.9947809 C3.66666667,22.5489074 6.54785542,25.4300961 10.1019819,25.4300961 Z" id="Combined-Shape" stroke="#FFFFFF" stroke-width="2"></path>
            </g>
        </g>
        <g id="云·特惠-copy-2" transform="translate(32.000000, 0.000000)">
            <g>
                <g id="Icon/模板" opacity="0" stroke="#E41F2B">
                    <g id="Group-2-Copy">
                        <g id="Group-100" opacity="0.15" stroke-linecap="square" stroke-width="0.5">
                            <path d="M0,0 L32,32 M32,0 L0,32" id="Diagonal"></path>
                            <path d="M1.6625,0 L1.6625,32 M9.9375,0 L9.9375,32 M16,0 L16,32 M22.0625,0 L22.0625,32 M30.3291667,0 L30.3291667,32" id="Vertical"></path>
                            <path d="M1.66666667,0 L1.66666667,32 M9.94166667,0 L9.94166667,32 M16.0041667,0 L16.0041667,32 M22.0666667,0 L22.0666667,32 M30.3333333,0 L30.3333333,32" id="Vertical" transform="translate(16.000000, 16.000000) rotate(-270.000000) translate(-16.000000, -16.000000) "></path>
                        </g>
                        <g id="Group" transform="translate(1.600000, 1.600000)" opacity="0.300000012" stroke-width="0.5">
                            <rect id="Rectangle-46-Copy-2" transform="translate(14.400000, 14.400000) rotate(-270.000000) translate(-14.400000, -14.400000) " x="3.98333333" y="0.25" width="20.8333333" height="28.3" rx="7.11111111"></rect>
                            <rect id="Rectangle-46-Copy-2" transform="translate(14.400000, 14.400000) rotate(-270.000000) translate(-14.400000, -14.400000) " x="2.11666667" y="2.11666667" width="24.5666667" height="24.5666667" rx="7.11111111"></rect>
                            <circle id="Oval-27" cx="14.4" cy="14.4" r="14.15"></circle>
                            <circle id="Oval-27" cx="14.4" cy="14.4" r="5.88333333"></circle>
                            <rect id="Rectangle-46-Copy" x="3.98333333" y="0.25" width="20.8333333" height="28.3" rx="7.11111111"></rect>
                        </g>
                    </g>
                </g>
                <path d="M22.8585137,24.4280904 L24.4280904,22.8585137 L24.4280904,19.4910294 L27.9191198,16 L24.4280904,12.5089706 L24.4280904,7.57190958 L19.4910294,7.57190958 L16,4.08088023 L12.5089706,7.57190958 L7.57190958,7.57190958 L7.57190958,12.5089706 L4.08088023,16 L7.57190958,19.4910294 L7.57190958,24.4280904 L12.5089706,24.4280904 L16,27.9191198 L19.4910294,24.4280904 L22.8585137,24.4280904 Z" id="Combined-Shape" stroke="#FFFFFF" stroke-width="2"></path>
                <path d="M20.7140452,11.2859548 L11.2859548,20.7140452" id="Line" stroke="#FFFFFF" stroke-linecap="square"></path>
                <g id="Group" transform="translate(11.000000, 11.000000)" stroke="#FFFFFF">
                    <g id="Group-2" transform="translate(0.333333, 0.333333)">
                        <rect id="Rectangle-12" x="0.833333333" y="0.833333333" width="2.33333333" height="2.33333333"></rect>
                        <rect id="Rectangle-12-Copy" x="6.16666667" y="6.16666667" width="2.33333333" height="2.33333333"></rect>
                    </g>
                </g>
            </g>
        </g>
        <g id="云·社区-copy-2" transform="translate(64.000000, 0.000000)">
            <g>
                <g id="Icon/模板" opacity="0" stroke="#E41F2B">
                    <g id="Group-2-Copy">
                        <g id="Group-100" opacity="0.15" stroke-linecap="square" stroke-width="0.5">
                            <path d="M0,0 L32,32 M32,0 L0,32" id="Diagonal"></path>
                            <path d="M1.6625,0 L1.6625,32 M9.9375,0 L9.9375,32 M16,0 L16,32 M22.0625,0 L22.0625,32 M30.3291667,0 L30.3291667,32" id="Vertical"></path>
                            <path d="M1.66666667,0 L1.66666667,32 M9.94166667,0 L9.94166667,32 M16.0041667,0 L16.0041667,32 M22.0666667,0 L22.0666667,32 M30.3333333,0 L30.3333333,32" id="Vertical" transform="translate(16.000000, 16.000000) rotate(-270.000000) translate(-16.000000, -16.000000) "></path>
                        </g>
                        <g id="Group" transform="translate(1.600000, 1.600000)" opacity="0.300000012" stroke-width="0.5">
                            <rect id="Rectangle-46-Copy-2" transform="translate(14.400000, 14.400000) rotate(-270.000000) translate(-14.400000, -14.400000) " x="3.98333333" y="0.25" width="20.8333333" height="28.3" rx="7.11111111"></rect>
                            <rect id="Rectangle-46-Copy-2" transform="translate(14.400000, 14.400000) rotate(-270.000000) translate(-14.400000, -14.400000) " x="2.11666667" y="2.11666667" width="24.5666667" height="24.5666667" rx="7.11111111"></rect>
                            <circle id="Oval-27" cx="14.4" cy="14.4" r="14.15"></circle>
                            <circle id="Oval-27" cx="14.4" cy="14.4" r="5.88333333"></circle>
                            <rect id="Rectangle-46-Copy" x="3.98333333" y="0.25" width="20.8333333" height="28.3" rx="7.11111111"></rect>
                        </g>
                    </g>
                </g>
                <path d="M25.156158,22.0442827 L25.6576936,20.1167224 L25.6666666,10.385749 C25.6667515,10.2935973 25.6170945,10.2085742 25.53679,10.1633734 L16.130889,4.86909606 C16.0532582,4.8254002 15.9584484,4.8254002 15.8808176,4.86909606 L6.4735636,10.164135 C6.39340564,10.2092534 6.34377182,10.294057 6.343687,10.3860405 L6.33333344,21.614251 C6.33324847,21.7064027 6.3829055,21.7914258 6.46321005,21.8366266 L15.869111,27.1309039 C15.9467418,27.1745998 16.0415516,27.1745998 16.1191824,27.1309039 L25.156158,22.0442827 Z" id="Polygon-Copy" stroke="#FFFFFF" stroke-width="2"></path>
                <g id="Group-3" transform="translate(9.333333, 8.666667)" stroke="#FFFFFF">
                    <g id="Group-2">
                        <circle id="Oval-16" cx="6.66666667" cy="1.33333333" r="1.33333333"></circle>
                        <circle id="Oval-16" cx="1.33333333" cy="10.6666667" r="1.33333333"></circle>
                        <circle id="Oval-16" cx="12" cy="10.6666667" r="1.33333333"></circle>
                    </g>
                    <g id="Group" transform="translate(3.000000, 3.000000)" stroke-linecap="square">
                        <path d="M3.66666667,0.333333333 L3.66666667,4.33333333" id="Line"></path>
                        <path d="M3.41421356,4.2524531 L0,6.66666667" id="Line-Copy"></path>
                        <path d="M7.37377345,4.2524531 L3.95955989,6.66666667" id="Line-Copy-2" transform="translate(5.666667, 5.459560) scale(-1, 1) translate(-5.666667, -5.459560) "></path>
                    </g>
                </g>
                <circle id="Oval-19" fill="#FFFFFF" cx="16" cy="16" r="1"></circle>
            </g>
        </g>
        <g id="云·活动-copy-3" transform="translate(96.000000, 0.000000)" stroke="#FFFFFF">
            <g id="Group">
                <g transform="translate(4.000000, 4.666667)">
                    <path d="M4.33333333,1.00000159 L4.33331172,10.61196 C4.33331172,14.846155 7.76580498,18.2786483 12,18.2786483 C16.2341947,18.2786483 19.666688,14.8461558 19.6666889,10.6119632 L19.6666701,0.999999127 L4.33333335,0.999999345 Z" id="Rectangle-3" stroke-width="2"></path>
                    <path d="M12.3333333,19 L12.3333333,23" id="Line-10" stroke-linecap="round"></path>
                    <path d="M7.33333333,23 L17.3333333,23" id="Line" stroke-width="2" stroke-linecap="round"></path>
                    <path d="M20.7179306,4.16748169 L22.6075149,4.16746715 C23.1598077,4.16746715 23.6075295,4.61518891 23.6075295,5.16748169 C23.6075295,5.20985252 23.6048366,5.25218052 23.5994671,5.29420975 C23.1978733,8.4376484 22.2373611,10.0093677 20.7179306,10.0093677" id="Path-3"></path>
                    <path d="M0.10552974,3.99996392 L2.36890926,3.99997419 C2.92119985,3.99997928 3.36891571,4.44770339 3.36891063,4.99999399 C3.36891007,5.05999635 3.36350918,5.1198769 3.35277329,5.17891099 C2.76826763,8.39297033 1.71800279,10 0.201978768,10" id="Path-3" transform="translate(1.768394, 6.999982) scale(-1, 1) translate(-1.768394, -6.999982) "></path>
                </g>
            </g>
        </g>
        <g id="云·活动-copy-4" transform="translate(128.000000, 0.000000)">
            <g>
                <g id="Icon/模板" opacity="0" stroke="#E41F2B">
                    <g id="Group-2-Copy">
                        <g id="Group-100" opacity="0.15" stroke-linecap="square" stroke-width="0.5">
                            <path d="M0,0 L32,32 M32,0 L0,32" id="Diagonal"></path>
                            <path d="M1.6625,0 L1.6625,32 M9.9375,0 L9.9375,32 M16,0 L16,32 M22.0625,0 L22.0625,32 M30.3291667,0 L30.3291667,32" id="Vertical"></path>
                            <path d="M1.66666667,0 L1.66666667,32 M9.94166667,0 L9.94166667,32 M16.0041667,0 L16.0041667,32 M22.0666667,0 L22.0666667,32 M30.3333333,0 L30.3333333,32" id="Vertical" transform="translate(16.000000, 16.000000) rotate(-270.000000) translate(-16.000000, -16.000000) "></path>
                        </g>
                        <g id="Group" transform="translate(1.600000, 1.600000)" opacity="0.300000012" stroke-width="0.5">
                            <rect id="Rectangle-46-Copy-2" transform="translate(14.400000, 14.400000) rotate(-270.000000) translate(-14.400000, -14.400000) " x="3.98333333" y="0.25" width="20.8333333" height="28.3" rx="7.11111111"></rect>
                            <rect id="Rectangle-46-Copy-2" transform="translate(14.400000, 14.400000) rotate(-270.000000) translate(-14.400000, -14.400000) " x="2.11666667" y="2.11666667" width="24.5666667" height="24.5666667" rx="7.11111111"></rect>
                            <circle id="Oval-27" cx="14.4" cy="14.4" r="14.15"></circle>
                            <circle id="Oval-27" cx="14.4" cy="14.4" r="5.88333333"></circle>
                            <rect id="Rectangle-46-Copy" x="3.98333333" y="0.25" width="20.8333333" height="28.3" rx="7.11111111"></rect>
                        </g>
                    </g>
                </g>
                <circle id="Oval-15" stroke="#FFFFFF" stroke-width="2" cx="16" cy="16" r="10.3333333"></circle>
                <path d="M20.6666667,18.3271823 L20.6666667,17.5346265 C20.8331463,17.4272653 20.9970768,17.3203397 21.1584567,17.2138686 C27.0669432,13.3157204 29.5563751,10.0269969 28.5514171,8.28635865 C27.9230349,7.19796869 25.9454342,6.96307878 22.7320195,7.91682665 L22.5423302,7.27771601 C26.1463021,6.20804998 28.3330346,6.57477567 29.1287674,7.95302532 C30.3022626,9.9855787 28.0579789,13.5380851 21.1737152,18.0020854 C21.0074125,18.109922 20.838402,18.2182905 20.6666667,18.3271823 Z" id="Combined-Shape" fill="#FFFFFF" fill-rule="nonzero"></path>
                <path d="M17.3333333,20.3101639 C8.67128311,25.1592937 3.75266327,25.5736574 2.4667318,23.3463588 C1.63247821,21.9013892 2.52556324,19.6882384 5.58511659,16.9255223 L6.03190717,17.4203178 C3.29599245,19.8907946 2.379873,21.8625816 3.04408207,23.0130254 C4.19327541,25.0034867 9.38031943,24.0488822 17.3333333,19.544969 L17.3333333,20.3101639 Z" id="Combined-Shape" fill="#FFFFFF" fill-rule="nonzero"></path>
                <rect id="Rectangle-12" stroke="#FFFFFF" x="17.6460015" y="17.0139583" width="3" height="3"></rect>
            </g>
        </g>
        <g id="connect-b-copy" transform="translate(160.000000, 32.000000)">
            <g id="Group-18" transform="translate(1.000000, 8.000000)" fill="#252B3A" fill-rule="nonzero">
                <g id="Group-17">
                    <path d="M12.2651255,12.220037 L12.1915679,12.2984844 L12.2298209,12.2554247 C12.2416324,12.2436821 12.2534007,12.2318861 12.2651255,12.220037 Z M14.6770514,9.50068219 L16.1722552,10.8289764 L13.6867718,13.6267786 C12.2367557,15.0921579 10.2243968,16 8,16 C3.581722,16 0,12.418278 0,8 C0,3.581722 3.581722,0 8,0 C10.3121824,0 12.3952606,0.980911878 13.855797,2.5492981 L12.3921556,3.91229249 C11.2627028,2.69943794 9.68977918,2 8,2 C4.6862915,2 2,4.6862915 2,8 C2,11.3137085 4.6862915,14 8,14 C9.60883336,14 11.1122694,13.3664659 12.2298209,12.2554247 L14.6770514,9.50068219 Z M12.2651255,12.220037 L12.1915679,12.2984844 L12.2298209,12.2554247 C12.2416324,12.2436821 12.2534007,12.2318861 12.2651255,12.220037 Z M14.6770514,9.50068219 L16.1722552,10.8289764 L13.6867718,13.6267786 C12.2367557,15.0921579 10.2243968,16 8,16 C3.581722,16 0,12.418278 0,8 C0,3.581722 3.581722,0 8,0 C10.3121824,0 12.3952606,0.980911878 13.855797,2.5492981 L12.3921556,3.91229249 C11.2627028,2.69943794 9.68977918,2 8,2 C4.6862915,2 2,4.6862915 2,8 C2,11.3137085 4.6862915,14 8,14 C9.60883336,14 11.1122694,13.3664659 12.2298209,12.2554247 L14.6770514,9.50068219 Z" id="Oval-15"></path>
                    <path d="M12.4163146,8.29038349 L10.4371879,10.4114766 C9.81575246,11.0394962 8.95331292,11.4285714 8,11.4285714 C6.10645229,11.4285714 4.57142857,9.89354771 4.57142857,8 C4.57142857,6.10645229 6.10645229,4.57142857 8,4.57142857 C8.99093533,4.57142857 9.88368312,4.99181938 10.5096273,5.6639849 L9.77780658,6.3454821 C9.32050475,5.85441191 8.68412067,5.57142857 8,5.57142857 C6.65873704,5.57142857 5.57142857,6.65873704 5.57142857,8 C5.57142857,9.34126296 6.65873704,10.4285714 8,10.4285714 C8.65824467,10.4285714 9.27246424,10.1668155 9.70603634,9.72926151 L11.685163,7.60816845 L12.4163146,8.29038349 Z" id="Oval-15-Copy"></path>
                </g>
                <g id="Group-17-Copy" transform="translate(20.642857, 8.000000) rotate(180.000000) translate(-20.642857, -8.000000) translate(12.142857, 0.000000)">
                    <path d="M12.4163146,8.29038349 L10.4371879,10.4114766 C9.81575246,11.0394962 8.95331292,11.4285714 8,11.4285714 C6.10645229,11.4285714 4.57142857,9.89354771 4.57142857,8 C4.57142857,6.10645229 6.10645229,4.57142857 8,4.57142857 C8.99093533,4.57142857 9.88368312,4.99181938 10.5096273,5.6639849 L9.77780658,6.3454821 C9.32050475,5.85441191 8.68412067,5.57142857 8,5.57142857 C6.65873704,5.57142857 5.57142857,6.65873704 5.57142857,8 C5.57142857,9.34126296 6.65873704,10.4285714 8,10.4285714 C8.65824467,10.4285714 9.27246424,10.1668155 9.70603634,9.72926151 L11.685163,7.60816845 L12.4163146,8.29038349 Z" id="Oval-15-Copy"></path>
                    <path d="M12.2651255,12.220037 L12.1915679,12.2984844 L12.2298209,12.2554247 C12.2416324,12.2436821 12.2534007,12.2318861 12.2651255,12.220037 Z M14.6770514,9.50068219 L16.1722552,10.8289764 L13.6867718,13.6267786 C12.2367557,15.0921579 10.2243968,16 8,16 C3.581722,16 0,12.418278 0,8 C0,3.581722 3.581722,-1.70530257e-13 8,-1.70530257e-13 C10.3121824,-1.70530257e-13 12.3952606,0.980911878 13.855797,2.5492981 L12.3921556,3.91229249 C11.2627028,2.69943794 9.68977918,2 8,2 C4.6862915,2 2,4.6862915 2,8 C2,11.3137085 4.6862915,14 8,14 C9.60883336,14 11.1122694,13.3664659 12.2298209,12.2554247 L14.6770514,9.50068219 Z M12.2651255,12.220037 L12.1915679,12.2984844 L12.2298209,12.2554247 C12.2416324,12.2436821 12.2534007,12.2318861 12.2651255,12.220037 Z M14.6770514,9.50068219 L16.1722552,10.8289764 L13.6867718,13.6267786 C12.2367557,15.0921579 10.2243968,16 8,16 C3.581722,16 0,12.418278 0,8 C0,3.581722 3.581722,-1.70530257e-13 8,-1.70530257e-13 C10.3121824,-1.70530257e-13 12.3952606,0.980911878 13.855797,2.5492981 L12.3921556,3.91229249 C11.2627028,2.69943794 9.68977918,2 8,2 C4.6862915,2 2,4.6862915 2,8 C2,11.3137085 4.6862915,14 8,14 C9.60883336,14 11.1122694,13.3664659 12.2298209,12.2554247 L14.6770514,9.50068219 Z" id="Oval-15"></path>
                </g>
            </g>
            <rect id="Rectangle" x="0" y="0" width="32" height="32"></rect>
        </g>
        <g id="connect-b-copy-2" transform="translate(160.000000, 0.000000)">
            <g id="Group-18" transform="translate(1.000000, 8.000000)" fill="#FFFFFF" fill-rule="nonzero">
                <g id="Group-17">
                    <path d="M12.2651255,12.220037 L12.1915679,12.2984844 L12.2298209,12.2554247 C12.2416324,12.2436821 12.2534007,12.2318861 12.2651255,12.220037 Z M14.6770514,9.50068219 L16.1722552,10.8289764 L13.6867718,13.6267786 C12.2367557,15.0921579 10.2243968,16 8,16 C3.581722,16 0,12.418278 0,8 C0,3.581722 3.581722,0 8,0 C10.3121824,0 12.3952606,0.980911878 13.855797,2.5492981 L12.3921556,3.91229249 C11.2627028,2.69943794 9.68977918,2 8,2 C4.6862915,2 2,4.6862915 2,8 C2,11.3137085 4.6862915,14 8,14 C9.60883336,14 11.1122694,13.3664659 12.2298209,12.2554247 L14.6770514,9.50068219 Z M12.2651255,12.220037 L12.1915679,12.2984844 L12.2298209,12.2554247 C12.2416324,12.2436821 12.2534007,12.2318861 12.2651255,12.220037 Z M14.6770514,9.50068219 L16.1722552,10.8289764 L13.6867718,13.6267786 C12.2367557,15.0921579 10.2243968,16 8,16 C3.581722,16 0,12.418278 0,8 C0,3.581722 3.581722,0 8,0 C10.3121824,0 12.3952606,0.980911878 13.855797,2.5492981 L12.3921556,3.91229249 C11.2627028,2.69943794 9.68977918,2 8,2 C4.6862915,2 2,4.6862915 2,8 C2,11.3137085 4.6862915,14 8,14 C9.60883336,14 11.1122694,13.3664659 12.2298209,12.2554247 L14.6770514,9.50068219 Z" id="Oval-15"></path>
                    <path d="M12.4163146,8.29038349 L10.4371879,10.4114766 C9.81575246,11.0394962 8.95331292,11.4285714 8,11.4285714 C6.10645229,11.4285714 4.57142857,9.89354771 4.57142857,8 C4.57142857,6.10645229 6.10645229,4.57142857 8,4.57142857 C8.99093533,4.57142857 9.88368312,4.99181938 10.5096273,5.6639849 L9.77780658,6.3454821 C9.32050475,5.85441191 8.68412067,5.57142857 8,5.57142857 C6.65873704,5.57142857 5.57142857,6.65873704 5.57142857,8 C5.57142857,9.34126296 6.65873704,10.4285714 8,10.4285714 C8.65824467,10.4285714 9.27246424,10.1668155 9.70603634,9.72926151 L11.685163,7.60816845 L12.4163146,8.29038349 Z" id="Oval-15-Copy"></path>
                </g>
                <g id="Group-17-Copy" transform="translate(20.642857, 8.000000) rotate(180.000000) translate(-20.642857, -8.000000) translate(12.142857, 0.000000)">
                    <path d="M12.4163146,8.29038349 L10.4371879,10.4114766 C9.81575246,11.0394962 8.95331292,11.4285714 8,11.4285714 C6.10645229,11.4285714 4.57142857,9.89354771 4.57142857,8 C4.57142857,6.10645229 6.10645229,4.57142857 8,4.57142857 C8.99093533,4.57142857 9.88368312,4.99181938 10.5096273,5.6639849 L9.77780658,6.3454821 C9.32050475,5.85441191 8.68412067,5.57142857 8,5.57142857 C6.65873704,5.57142857 5.57142857,6.65873704 5.57142857,8 C5.57142857,9.34126296 6.65873704,10.4285714 8,10.4285714 C8.65824467,10.4285714 9.27246424,10.1668155 9.70603634,9.72926151 L11.685163,7.60816845 L12.4163146,8.29038349 Z" id="Oval-15-Copy"></path>
                    <path d="M12.2651255,12.220037 L12.1915679,12.2984844 L12.2298209,12.2554247 C12.2416324,12.2436821 12.2534007,12.2318861 12.2651255,12.220037 Z M14.6770514,9.50068219 L16.1722552,10.8289764 L13.6867718,13.6267786 C12.2367557,15.0921579 10.2243968,16 8,16 C3.581722,16 0,12.418278 0,8 C0,3.581722 3.581722,-1.70530257e-13 8,-1.70530257e-13 C10.3121824,-1.70530257e-13 12.3952606,0.980911878 13.855797,2.5492981 L12.3921556,3.91229249 C11.2627028,2.69943794 9.68977918,2 8,2 C4.6862915,2 2,4.6862915 2,8 C2,11.3137085 4.6862915,14 8,14 C9.60883336,14 11.1122694,13.3664659 12.2298209,12.2554247 L14.6770514,9.50068219 Z M12.2651255,12.220037 L12.1915679,12.2984844 L12.2298209,12.2554247 C12.2416324,12.2436821 12.2534007,12.2318861 12.2651255,12.220037 Z M14.6770514,9.50068219 L16.1722552,10.8289764 L13.6867718,13.6267786 C12.2367557,15.0921579 10.2243968,16 8,16 C3.581722,16 0,12.418278 0,8 C0,3.581722 3.581722,-1.70530257e-13 8,-1.70530257e-13 C10.3121824,-1.70530257e-13 12.3952606,0.980911878 13.855797,2.5492981 L12.3921556,3.91229249 C11.2627028,2.69943794 9.68977918,2 8,2 C4.6862915,2 2,4.6862915 2,8 C2,11.3137085 4.6862915,14 8,14 C9.60883336,14 11.1122694,13.3664659 12.2298209,12.2554247 L14.6770514,9.50068219 Z" id="Oval-15"></path>
                </g>
            </g>
            <rect id="Rectangle" x="0" y="0" width="32" height="32"></rect>
        </g>
        <g id="connect-b-copy-3" transform="translate(160.000000, 64.000000)">
            <g id="Group-18" transform="translate(1.000000, 8.000000)" fill="#E41F2B" fill-rule="nonzero">
                <g id="Group-17">
                    <path d="M12.2651255,12.220037 L12.1915679,12.2984844 L12.2298209,12.2554247 C12.2416324,12.2436821 12.2534007,12.2318861 12.2651255,12.220037 Z M14.6770514,9.50068219 L16.1722552,10.8289764 L13.6867718,13.6267786 C12.2367557,15.0921579 10.2243968,16 8,16 C3.581722,16 0,12.418278 0,8 C0,3.581722 3.581722,0 8,0 C10.3121824,0 12.3952606,0.980911878 13.855797,2.5492981 L12.3921556,3.91229249 C11.2627028,2.69943794 9.68977918,2 8,2 C4.6862915,2 2,4.6862915 2,8 C2,11.3137085 4.6862915,14 8,14 C9.60883336,14 11.1122694,13.3664659 12.2298209,12.2554247 L14.6770514,9.50068219 Z M12.2651255,12.220037 L12.1915679,12.2984844 L12.2298209,12.2554247 C12.2416324,12.2436821 12.2534007,12.2318861 12.2651255,12.220037 Z M14.6770514,9.50068219 L16.1722552,10.8289764 L13.6867718,13.6267786 C12.2367557,15.0921579 10.2243968,16 8,16 C3.581722,16 0,12.418278 0,8 C0,3.581722 3.581722,0 8,0 C10.3121824,0 12.3952606,0.980911878 13.855797,2.5492981 L12.3921556,3.91229249 C11.2627028,2.69943794 9.68977918,2 8,2 C4.6862915,2 2,4.6862915 2,8 C2,11.3137085 4.6862915,14 8,14 C9.60883336,14 11.1122694,13.3664659 12.2298209,12.2554247 L14.6770514,9.50068219 Z" id="Oval-15"></path>
                    <path d="M12.4163146,8.29038349 L10.4371879,10.4114766 C9.81575246,11.0394962 8.95331292,11.4285714 8,11.4285714 C6.10645229,11.4285714 4.57142857,9.89354771 4.57142857,8 C4.57142857,6.10645229 6.10645229,4.57142857 8,4.57142857 C8.99093533,4.57142857 9.88368312,4.99181938 10.5096273,5.6639849 L9.77780658,6.3454821 C9.32050475,5.85441191 8.68412067,5.57142857 8,5.57142857 C6.65873704,5.57142857 5.57142857,6.65873704 5.57142857,8 C5.57142857,9.34126296 6.65873704,10.4285714 8,10.4285714 C8.65824467,10.4285714 9.27246424,10.1668155 9.70603634,9.72926151 L11.685163,7.60816845 L12.4163146,8.29038349 Z" id="Oval-15-Copy"></path>
                </g>
                <g id="Group-17-Copy" transform="translate(20.642857, 8.000000) rotate(180.000000) translate(-20.642857, -8.000000) translate(12.142857, 0.000000)">
                    <path d="M12.4163146,8.29038349 L10.4371879,10.4114766 C9.81575246,11.0394962 8.95331292,11.4285714 8,11.4285714 C6.10645229,11.4285714 4.57142857,9.89354771 4.57142857,8 C4.57142857,6.10645229 6.10645229,4.57142857 8,4.57142857 C8.99093533,4.57142857 9.88368312,4.99181938 10.5096273,5.6639849 L9.77780658,6.3454821 C9.32050475,5.85441191 8.68412067,5.57142857 8,5.57142857 C6.65873704,5.57142857 5.57142857,6.65873704 5.57142857,8 C5.57142857,9.34126296 6.65873704,10.4285714 8,10.4285714 C8.65824467,10.4285714 9.27246424,10.1668155 9.70603634,9.72926151 L11.685163,7.60816845 L12.4163146,8.29038349 Z" id="Oval-15-Copy"></path>
                    <path d="M12.2651255,12.220037 L12.1915679,12.2984844 L12.2298209,12.2554247 C12.2416324,12.2436821 12.2534007,12.2318861 12.2651255,12.220037 Z M14.6770514,9.50068219 L16.1722552,10.8289764 L13.6867718,13.6267786 C12.2367557,15.0921579 10.2243968,16 8,16 C3.581722,16 0,12.418278 0,8 C0,3.581722 3.581722,-1.70530257e-13 8,-1.70530257e-13 C10.3121824,-1.70530257e-13 12.3952606,0.980911878 13.855797,2.5492981 L12.3921556,3.91229249 C11.2627028,2.69943794 9.68977918,2 8,2 C4.6862915,2 2,4.6862915 2,8 C2,11.3137085 4.6862915,14 8,14 C9.60883336,14 11.1122694,13.3664659 12.2298209,12.2554247 L14.6770514,9.50068219 Z M12.2651255,12.220037 L12.1915679,12.2984844 L12.2298209,12.2554247 C12.2416324,12.2436821 12.2534007,12.2318861 12.2651255,12.220037 Z M14.6770514,9.50068219 L16.1722552,10.8289764 L13.6867718,13.6267786 C12.2367557,15.0921579 10.2243968,16 8,16 C3.581722,16 0,12.418278 0,8 C0,3.581722 3.581722,-1.70530257e-13 8,-1.70530257e-13 C10.3121824,-1.70530257e-13 12.3952606,0.980911878 13.855797,2.5492981 L12.3921556,3.91229249 C11.2627028,2.69943794 9.68977918,2 8,2 C4.6862915,2 2,4.6862915 2,8 C2,11.3137085 4.6862915,14 8,14 C9.60883336,14 11.1122694,13.3664659 12.2298209,12.2554247 L14.6770514,9.50068219 Z" id="Oval-15"></path>
                </g>
            </g>
            <rect id="Rectangle" x="0" y="0" width="32" height="32"></rect>
        </g>
    </g>
</svg>