<?xml version="1.0" encoding="UTF-8"?>
<svg width="40px" height="40px" viewBox="0 0 40 40" version="1.1" xmlns="http://www.w3.org/2000/svg" xmlns:xlink="http://www.w3.org/1999/xlink">
    <!-- Generator: Sketch 61.2 (89653) - https://sketch.com -->
    <title>7X24</title>
    <desc>Created with Sketch.</desc>
    <g id="页面-1" stroke="none" stroke-width="1" fill="none" fill-rule="evenodd">
        <g id="画板" transform="translate(-39.000000, -38.000000)">
            <g id="7*24小时" transform="translate(42.000000, 41.000000)">
                <path d="M28.7048032,0.722694342 L30.7536139,6.59969434 L29.8116139,6.59969434 L27.8646139,1.01372581 L28.7048032,0.722694342 Z" id="Combined-Shape" fill="#252B3A" fill-rule="nonzero"></path>
                <path d="M17.3510195,0 C19.6930988,0 21.9654503,0.460125238 24.1050287,1.3676664 C26.1712846,2.24405809 28.0267903,3.4985418 29.6200678,5.09631707 C30.0967229,5.57430383 30.5427396,6.07583467 30.9571902,6.5995224 L29.52851,6.59989376 C26.5541394,3.26205081 22.2225498,1.16 17.4,1.16 C8.43089566,1.16 1.16,8.43089566 1.16,17.4 C1.16,26.3691043 8.42771575,33.84 17.3968201,33.84 C23.5197233,33.84 28.8526872,30.3583164 31.6207666,25.2951289 L31.9323297,25.4765941 C31.9323297,25.4765941 32.5114436,25.8714163 32.4487208,25.9823344 C31.6811621,27.3396022 30.7345141,28.5860906 29.6201139,29.7036367 C28.0268364,31.301412 26.1713307,32.555942 24.1050748,33.4323336 C21.9654964,34.3398747 19.6899649,35 17.3478856,35 C15.0058063,35 12.7365886,34.3398748 10.5970563,33.4323336 C8.53080038,32.555942 6.67529473,31.3013657 5.08201715,29.7036367 C3.48873958,28.1059077 2.23774108,26.2451179 1.36381646,24.1730753 C0.458876115,22.027457 0,19.7486446 0,17.3999538 C0,15.051263 0.45887607,12.7724968 1.36381646,10.6268785 C2.2377872,8.55483593 3.48878569,6.69409234 5.08201715,5.09631707 C6.67524861,3.4985418 8.53080038,2.24405804 10.5970102,1.3676664 C12.7365886,0.460171486 15.0089401,0 17.3510195,0 Z" id="Combined-Shape" fill="#252B3A" fill-rule="nonzero"></path>
                <line x1="17.5" y1="9.5" x2="17.5" y2="19.5" id="Line" stroke="#252B3A" stroke-linecap="round"></line>
                <line x1="26.5" y1="19.5" x2="17.5" y2="19.5" id="Line" stroke="#252B3A" stroke-linecap="round"></line>
            </g>
        </g>
    </g>
</svg>