<?xml version="1.0" encoding="UTF-8"?>
<svg width="40px" height="40px" viewBox="0 0 40 40" version="1.1" xmlns="http://www.w3.org/2000/svg" xmlns:xlink="http://www.w3.org/1999/xlink">
    <!-- Generator: Sketch 61.2 (89653) - https://sketch.com -->
    <title>退</title>
    <desc>Created with Sketch.</desc>
    <g id="页面-1" stroke="none" stroke-width="1" fill="none" fill-rule="evenodd">
        <g id="画板" transform="translate(-134.000000, -41.000000)">
            <g id="无理由退订" transform="translate(136.000000, 43.000000)">
                <path d="M34.5326695,15.1152645 L34.5345284,15.2195176 L34,15.2195176 C34,14.4456055 33.5864826,15.9647474 33.4829667,15.2195176 C32.379911,7.27841472 25.5996146,1.16666667 17.4,1.16666667 C8.43089566,1.16666667 1.16,8.47934909 1.16,17.5 C1.16,26.5206509 8.43089566,33.8333333 17.4,33.8333333 C19.4084895,33.8333333 21.3498725,33.3522693 23.1534851,32.504297 C26.6414718,31.1282289 29.5358273,28.5483821 31.3325693,25.2743536 L31.3325693,25.2743536 L31.9323297,25.6230113 C31.9323297,25.6230113 32.5114436,26.0201026 32.4487208,26.1316582 C31.6811621,27.4967264 30.7345141,28.7503785 29.6201139,29.8743473 C28.0268364,31.4813052 26.1713307,32.7430451 24.1050748,33.6244734 C21.9654964,34.5372303 19.6931448,35 17.3510655,35 C15.0089862,35 12.7365886,34.5372304 10.5970563,33.6244734 C8.53080038,32.7430451 6.67529473,31.4812587 5.08201715,29.8743473 C3.48873958,28.2674359 2.23774108,26.3959519 1.36381646,24.312001 C0.458876115,22.1540516 0,19.8621426 0,17.4999535 C0,15.1377645 0.45887607,12.8459019 1.36381646,10.6879525 C2.2377872,8.60400166 3.48878569,6.73256414 5.08201715,5.12560625 C6.67524861,3.51864836 8.53080038,2.25695493 10.5970102,1.37552656 C12.7365886,0.462816149 15.0089401,0 17.3510195,0 C19.6930988,0 21.9654503,0.462769636 24.1050287,1.37552656 C26.1712846,2.25695497 28.0267903,3.51864836 29.6200678,5.12560625 C31.2133454,6.73251762 32.4642978,8.60400166 33.3382685,10.6879525 C33.9271028,12.0921584 34.3270016,13.5530818 34.5345284,15.0531715 L34.533,15.046 L34.535831,15.0131524 C34.5505724,14.9226392 34.6077458,15.5824171 34.5345284,15.0531715 L34.533,15.048 L34.5326695,15.1152645 L34.5326695,15.1152645 Z" id="Combined-Shape" fill="#252B3A" fill-rule="nonzero"></path>
                <circle id="Oval-2" stroke="#252B3A" cx="34.201797" cy="17.4" r="2.4"></circle>
                <path d="M13.576797,13.4654545 L14.356797,12.6854545 C13.666797,11.9054545 12.811797,11.1254545 11.791797,10.3304545 L11.056797,11.0354545 C12.136797,11.9054545 12.976797,12.7154545 13.576797,13.4654545 Z M15.661797,21.4904545 C17.446797,21.1904545 18.916797,20.8754545 20.086797,20.5604545 L19.846797,19.5854545 C18.871797,19.8704545 17.881797,20.0954545 16.891797,20.2754545 L16.891797,16.2254545 L22.966797,16.2254545 L22.966797,10.7054545 L15.841797,10.7054545 L15.841797,20.1254545 C15.841797,20.3204545 15.706797,20.4704545 15.436797,20.5754545 L15.661797,21.4904545 Z M21.901797,13.0154545 L16.891797,13.0154545 L16.891797,11.6804545 L21.901797,11.6804545 L21.901797,13.0154545 Z M21.901797,15.2504545 L16.891797,15.2504545 L16.891797,13.9154545 L21.901797,13.9154545 L21.901797,15.2504545 Z M11.536797,23.8754545 C12.361797,22.4954545 12.961797,21.8054545 13.321797,21.8054545 C13.501797,21.8054545 13.681797,21.9254545 13.876797,22.1804545 C14.326797,22.7204545 14.851797,23.0954545 15.421797,23.2754545 C16.006797,23.4404545 16.771797,23.5304545 17.716797,23.5454545 C18.646797,23.5604545 19.516797,23.5754545 20.311797,23.5754545 L23.986797,23.5754545 L24.256797,22.4954545 C23.836797,22.5254545 23.236797,22.5404545 22.456797,22.5554545 C21.676797,22.5704545 20.911797,22.5854545 20.161797,22.5854545 C19.021797,22.5854545 18.061797,22.5704545 17.281797,22.5554545 C16.426797,22.5254545 15.766797,22.4054545 15.316797,22.1954545 C14.926797,22.0004545 14.551797,21.6854545 14.191797,21.2504545 C14.071797,21.1154545 13.966797,21.0104545 13.846797,20.9204545 L13.846797,15.2954545 L10.711797,15.2954545 L10.711797,16.2854545 L12.841797,16.2854545 L12.841797,20.8454545 C12.226797,21.1154545 11.521797,21.8804545 10.726797,23.1404545 L11.536797,23.8754545 Z M23.311797,21.4454545 L23.971797,20.6504545 C23.341797,20.0504545 22.666797,19.4654545 21.946797,18.8954545 C22.441797,18.4604545 22.921797,17.9654545 23.401797,17.3954545 L22.621797,16.7954545 C22.201797,17.3054545 21.721797,17.8154545 21.151797,18.3104545 C20.431797,17.8004545 19.666797,17.3204545 18.841797,16.8404545 L18.226797,17.5754545 C20.296797,18.7754545 21.991797,20.0654545 23.311797,21.4454545 Z" id="退" fill="#252B3A" fill-rule="nonzero"></path>
            </g>
        </g>
    </g>
</svg>