<?xml version="1.0" encoding="UTF-8"?>
<svg width="40px" height="40px" viewBox="0 0 40 40" version="1.1" xmlns="http://www.w3.org/2000/svg" xmlns:xlink="http://www.w3.org/1999/xlink">
    <!-- Generator: Sketch 61.2 (89653) - https://sketch.com -->
    <title>专业服务</title>
    <desc>Created with Sketch.</desc>
    <g id="页面-1" stroke="none" stroke-width="1" fill="none" fill-rule="evenodd">
        <g id="画板" transform="translate(-416.000000, -49.000000)" stroke="#252B3A">
            <g id="VIP" transform="translate(418.000000, 55.000000)">
                <path d="M23.8956939,13.0625052 L19.2045502,6.2062183 C18.8926839,5.75041369 18.2703637,5.63372864 17.814559,5.94559496 C17.7122868,6.01557074 17.6239115,6.10394601 17.5539357,6.2062183 L12.8599234,13.0666979 C12.2973796,13.8888772 11.2155212,14.171697 10.3225776,13.7300117 L4.97423772,11.0845112 C4.47920234,10.8396471 3.87939531,11.042451 3.63453123,11.5374864 C3.52421151,11.7605169 3.50100291,12.0166649 3.56943923,12.2558918 L5.72865687,19.8036825 C6.24038239,21.5924771 6.5,23.4439275 6.5,25.3044783 L6.5,27.5 C6.5,28.6045695 7.3954305,29.5 8.5,29.5 L27.5,29.5 C28.6045695,29.5 29.5,28.6045695 29.5,27.5 L29.5,25.8249674 C29.5,23.6234306 29.8634907,21.4369991 30.5758071,19.3538838 L32.9581211,12.3869873 C33.1368151,11.8644102 32.8580428,11.2959175 32.3354656,11.1172235 C32.0824398,11.0307019 31.8053014,11.0491253 31.5659549,11.1683785 L26.4382215,13.7232466 C25.5445918,14.1684932 24.4594789,13.8864986 23.8956939,13.0625052 Z" id="Path"></path>
                <path d="M5.00004975,9.00016583 C5.00004975,10.3790743 3.87903198,11.5 2.5,11.5 C1.12109427,11.5 4.97513252e-05,10.3790347 4.97513252e-05,9.00016583 C4.97513252e-05,7.62107547 1.12105044,6.5 2.5,6.5 C3.87907582,6.5 5.00004975,7.62103588 5.00004975,9.00016583 Z" id="Path"></path>
                <path d="M18.4996891,5.5 C16.8451828,5.5 15.5,4.1547152 15.5,2.50020729 C15.5,0.84537483 16.8451342,-0.5 18.4996891,-0.5 C20.1547503,-0.5 21.5,0.845259325 21.5,2.50020729 C21.5,4.15481766 20.1546732,5.5 18.4996891,5.5 Z" id="Path"></path>
                <path d="M34,6.5 C35.3788763,6.5 36.4997513,7.62107539 36.4997513,9.00016583 C36.4997513,10.3790348 35.3788325,11.5 34,11.5 C32.6207663,11.5 31.4997513,10.379131 31.4997513,9.00016583 C31.4997513,7.62096898 32.6206994,6.5 34,6.5 Z" id="Path"></path>
                <line x1="6.5" y1="23.5" x2="29.5" y2="23.5" id="Line-6" stroke-linecap="square"></line>
            </g>
        </g>
    </g>
</svg>